<?xml version="1.0" encoding="UTF-8"?>
<svg xmlns="http://www.w3.org/2000/svg" xmlns:xlink="http://www.w3.org/1999/xlink" width="480" zoomAndPan="magnify" viewBox="0 0 360 284.999983" height="380" preserveAspectRatio="xMidYMid meet" version="1.0" style="background: transparent;"><defs><clipPath id="d231423de4"><path d="M 37.5 0 L 322.5 0 L 322.5 285 L 37.5 285 Z M 37.5 0 " clip-rule="nonzero"/></clipPath><clipPath id="25638082e3"><path d="M 37.5 160 L 322.5 160 L 322.5 285 L 37.5 285 Z M 37.5 160 " clip-rule="nonzero"/></clipPath></defs><g clip-path="url(#d231423de4)"/><path fill="#fefefe" d="M 166.167969 48.308594 C 167.078125 48.3125 167.988281 48.308594 168.894531 48.304688 C 174.808594 48.296875 180.433594 48.925781 186.183594 50.3125 L 187.554688 50.625 C 190.023438 51.210938 192.246094 51.921875 194.523438 53.023438 C 195.21875 53.289062 195.914062 53.550781 196.613281 53.800781 C 201.589844 55.699219 206.324219 58.113281 210.890625 60.84375 L 210.890625 61.554688 L 211.671875 61.847656 C 212.660156 62.265625 213.492188 62.746094 214.382812 63.335938 L 215.234375 63.890625 L 215.871094 64.402344 L 215.871094 65.113281 L 217.296875 65.46875 L 217.296875 66.179688 L 217.875 66.429688 C 218.972656 67.03125 219.902344 67.800781 220.855469 68.601562 L 221.417969 69.0625 C 222.570312 70.023438 223.5 71.035156 224.414062 72.226562 C 225.203125 73.035156 226.011719 73.828125 226.835938 74.605469 L 227.257812 75.070312 L 227.257812 75.78125 L 227.972656 75.78125 C 228.597656 76.496094 229.195312 77.226562 229.773438 77.980469 L 230.300781 78.664062 C 234.960938 84.742188 238.769531 91.171875 241.847656 98.183594 L 242.1875 98.953125 C 244.265625 103.75 245.574219 108.761719 246.832031 113.828125 L 247.132812 115.035156 C 247.640625 117.15625 248.03125 119.15625 248.121094 121.335938 C 248.144531 121.820312 248.164062 122.304688 248.1875 122.785156 L 248.253906 124.140625 C 248.382812 125.84375 248.53125 127.539062 248.792969 129.230469 C 249.867188 137.390625 248.550781 146.804688 246.050781 154.613281 C 245.707031 155.742188 245.707031 155.742188 245.828125 156.753906 C 246.15625 157.667969 246.515625 158.105469 247.207031 158.785156 C 251.140625 163.066406 253.015625 168.71875 254.300781 174.273438 C 254.507812 175.347656 254.613281 176.382812 254.65625 177.472656 L 254.714844 178.578125 C 254.863281 184.105469 253.707031 189.957031 251.097656 194.871094 C 249.519531 197.675781 247.671875 200.066406 245.40625 202.363281 L 244.828125 203.019531 C 241.5 206.679688 236.859375 208.777344 232.25 210.316406 C 227.414062 211.839844 221.574219 211.710938 216.621094 210.816406 C 213.746094 210.105469 211.023438 209.058594 208.398438 207.699219 L 208.398438 206.988281 L 207.332031 206.988281 L 207.332031 206.273438 L 206.507812 205.964844 C 205.554688 205.5625 205.554688 205.5625 204.484375 204.851562 L 204.484375 204.140625 L 203.878906 203.890625 C 201.167969 202.363281 199.320312 199.3125 197.679688 196.742188 C 196.414062 194.765625 195.230469 193.171875 193.101562 192.054688 C 191.609375 191.355469 190.253906 191.253906 188.628906 191.214844 C 186.867188 191.476562 185.453125 192.222656 184.0625 193.292969 C 183.640625 193.628906 183.222656 193.964844 182.804688 194.296875 C 179.253906 197.003906 175.355469 198.492188 170.914062 199.078125 C 167.550781 199.386719 163.9375 199.269531 160.753906 198.0625 C 159.890625 197.636719 159.046875 197.175781 158.226562 196.675781 L 157.535156 196.265625 C 156.9375 195.898438 156.9375 195.898438 156.09375 195.253906 L 156.09375 194.542969 L 155.46875 194.277344 C 153.671875 193.273438 152.347656 191.480469 151.28125 189.753906 C 150.820312 188.875 150.425781 187.992188 150.046875 187.074219 L 149.699219 186.300781 C 148.933594 184.257812 148.878906 182.253906 148.867188 180.097656 L 148.859375 179.234375 C 148.898438 176.117188 149.722656 173.570312 151.140625 170.796875 C 151.894531 169.53125 152.761719 168.433594 153.691406 167.296875 C 154.757812 165.984375 155.609375 164.816406 155.980469 163.140625 C 156.265625 160.691406 155.753906 158.46875 155.027344 156.140625 L 154.3125 156.140625 L 153.699219 155.339844 C 152.78125 154.226562 151.890625 153.664062 150.644531 152.9375 C 148.1875 151.480469 145.976562 150.054688 143.996094 147.964844 L 143.351562 147.363281 C 143.210938 147.207031 143.070312 147.050781 142.929688 146.894531 L 142.929688 146.183594 L 142.21875 146.183594 C 138.765625 142.222656 136.464844 137.203125 135.402344 132.09375 C 134.476562 126.824219 134.726562 121.621094 136.539062 116.570312 C 138.714844 111.078125 142.171875 106.566406 146.703125 102.804688 C 151.117188 99.308594 155.910156 97.085938 161.429688 96.046875 L 162.476562 95.84375 C 167.902344 95.097656 173.871094 95.707031 178.960938 97.75 C 184.535156 100.222656 189.617188 103.285156 193.300781 108.285156 C 196.28125 112.492188 198.652344 117.152344 199.148438 122.363281 C 199.554688 128.65625 199.183594 134.164062 196.414062 139.894531 C 195.136719 142.375 193.582031 144.488281 191.675781 146.539062 L 190.792969 147.523438 C 188.988281 149.433594 187.191406 150.894531 184.984375 152.296875 C 182.511719 153.863281 182.511719 153.863281 180.628906 156.070312 C 179.816406 157.9375 179.484375 159.886719 179.636719 161.917969 C 179.769531 162.667969 179.769531 162.667969 180.289062 163.605469 C 180.882812 163.84375 181.476562 164.085938 182.070312 164.316406 C 182.625 164.777344 183.164062 165.253906 183.691406 165.742188 C 185.03125 166.835938 186.078125 167.414062 187.785156 167.742188 C 189.667969 167.941406 191.332031 167.863281 193.101562 167.164062 C 193.855469 166.734375 194.527344 166.253906 195.234375 165.742188 L 195.949219 165.742188 L 196.253906 165.121094 L 196.660156 164.316406 L 197.003906 163.617188 C 199.316406 159.1875 202.871094 155.40625 206.976562 152.582031 L 207.648438 152.246094 C 208.414062 151.828125 208.894531 151.460938 209.46875 150.808594 C 212.695312 143.886719 213.589844 135.378906 212.949219 127.847656 C 212.027344 119.523438 209.691406 111.488281 204.84375 104.582031 C 204.574219 104.183594 204.308594 103.785156 204.046875 103.386719 C 199.480469 96.652344 193.1875 91.734375 185.917969 88.136719 C 182.191406 86.503906 178.3125 85.375 174.292969 84.757812 C 170.269531 84.136719 166.234375 84.046875 162.1875 84.480469 C 154.574219 85.457031 147.382812 88.351562 141.261719 92.976562 C 138.191406 95.375 135.492188 98.078125 132.949219 101.019531 L 132.253906 101.738281 L 131.539062 101.738281 L 131.320312 102.601562 C 130.902344 103.679688 130.523438 104.367188 129.871094 105.292969 C 128.40625 107.421875 127.308594 109.71875 126.203125 112.046875 L 125.710938 113.015625 C 122.363281 120.140625 121.921875 128.835938 122.289062 136.582031 C 122.484375 138.632812 122.894531 140.625 123.359375 142.628906 L 123.660156 144.050781 C 124.546875 148.070312 125.894531 152.128906 128.050781 155.65625 C 128.695312 156.855469 128.894531 157.53125 128.894531 158.875 C 128.851562 159.886719 128.851562 159.886719 128.695312 160.761719 C 127.984375 161.695312 127.984375 161.695312 126.914062 162.183594 C 125.582031 162.539062 124.519531 162.660156 123.175781 162.308594 C 122.289062 161.828125 122.289062 161.828125 121.59375 161 C 118.847656 156.503906 116.9375 151.667969 115.574219 146.582031 L 115.367188 145.816406 C 114.238281 141.316406 113.972656 136.839844 113.996094 132.226562 L 113.996094 131.398438 C 114.015625 127.351562 114.152344 123.449219 115.175781 119.515625 L 115.398438 118.621094 C 117.917969 108.808594 122.148438 99.992188 129.253906 92.664062 C 129.757812 92.140625 130.253906 91.605469 130.75 91.070312 C 135.296875 86.234375 140.882812 82.886719 146.84375 80.046875 L 147.535156 79.714844 C 155.835938 75.847656 165.425781 75.101562 174.453125 75.859375 C 175.964844 76.054688 177.410156 76.414062 178.867188 76.847656 L 179.539062 77.035156 C 183.183594 78.074219 186.722656 79.394531 190.253906 80.757812 L 190.253906 81.46875 L 191.308594 81.707031 C 193 82.1875 194.34375 83.113281 195.789062 84.089844 L 196.578125 84.609375 C 197.082031 84.945312 197.585938 85.28125 198.089844 85.621094 C 198.539062 85.921875 198.996094 86.21875 199.453125 86.507812 C 199.960938 86.828125 200.445312 87.167969 200.929688 87.511719 L 200.929688 88.222656 L 201.570312 88.519531 C 206.316406 91.058594 209.949219 96.941406 212.753906 101.363281 C 217.925781 109.753906 221.035156 119.480469 221.328125 129.351562 C 221.339844 130.277344 221.34375 131.210938 221.34375 132.140625 L 221.34375 132.875 C 221.34375 137.910156 220.652344 142.726562 219.433594 147.609375 L 225.125 147.25 C 227.492188 135.085938 227.40625 122.8125 223.367188 110.976562 C 221.421875 105.605469 218.964844 100.269531 215.515625 95.691406 L 214.699219 94.574219 C 210.472656 88.863281 205.246094 82.914062 198.792969 79.691406 L 198.792969 78.980469 L 198.167969 78.851562 C 197.34375 78.617188 196.699219 78.304688 195.949219 77.886719 L 195.128906 77.4375 L 194.257812 76.960938 C 191.214844 75.324219 188.183594 74.035156 184.914062 72.9375 L 183.785156 72.53125 C 175.785156 69.8125 165.980469 69.449219 157.671875 70.960938 C 156.789062 71.140625 155.90625 71.328125 155.027344 71.511719 C 154.078125 71.652344 153.128906 71.761719 152.179688 71.871094 L 152.179688 72.582031 L 150.890625 72.917969 C 148.007812 73.6875 145.273438 74.476562 142.574219 75.78125 L 141.863281 75.78125 L 141.863281 76.492188 L 140.726562 77.023438 C 137.996094 78.390625 135.359375 80.019531 132.898438 81.824219 L 131.898438 82.535156 L 131.183594 82.535156 L 130.472656 83.957031 L 129.761719 83.957031 L 129.761719 84.667969 L 128.695312 84.667969 L 128.449219 85.292969 C 127.863281 86.296875 127.117188 86.792969 126.203125 87.511719 C 125.875 87.894531 125.558594 88.277344 125.246094 88.667969 L 124.425781 89.648438 L 123.714844 89.648438 L 123.445312 90.445312 C 122.957031 91.515625 122.410156 92.023438 121.578125 92.847656 C 117.289062 98.453125 114.011719 104.503906 111.878906 111.226562 C 111.691406 111.804688 111.496094 112.378906 111.285156 112.945312 C 108.1875 121.878906 107.882812 131.921875 109.125 141.207031 L 109.234375 142.066406 C 109.742188 145.871094 110.660156 149.332031 111.96875 152.9375 C 112.136719 153.457031 112.300781 153.96875 112.464844 154.488281 C 113.039062 156.210938 113.769531 157.839844 114.550781 159.472656 L 114.980469 160.367188 C 116.261719 163.019531 117.703125 165.476562 119.503906 167.8125 C 121.734375 170.710938 121.734375 170.710938 122 172.273438 C 121.933594 173.566406 121.933594 173.566406 121.535156 174.5625 C 120.75 175.476562 120.199219 175.9375 119.089844 176.40625 C 118.097656 176.574219 117.21875 176.644531 116.242188 176.40625 C 112.824219 174.078125 110.671875 169.953125 108.761719 166.382812 C 108.421875 165.765625 108.078125 165.148438 107.726562 164.535156 C 103.835938 157.476562 101.503906 149.175781 100.585938 141.207031 L 100.457031 140.109375 C 99.160156 128.285156 100.703125 116.8125 104.855469 105.648438 L 105.148438 104.851562 C 107.488281 98.617188 111.09375 92.476562 115.53125 87.511719 C 115.921875 87 116.304688 86.480469 116.6875 85.957031 C 117.523438 84.832031 118.421875 83.863281 119.445312 82.890625 L 120.089844 82.210938 C 122.40625 79.796875 124.960938 77.785156 127.628906 75.78125 L 128.246094 75.3125 C 134.71875 70.4375 141.941406 66.804688 149.6875 64.421875 L 150.679688 64.117188 C 154.910156 62.882812 159.179688 62.445312 163.566406 62.179688 L 164.347656 62.132812 C 168.289062 61.894531 172.101562 61.917969 176.011719 62.515625 C 176.691406 62.617188 177.375 62.695312 178.054688 62.769531 C 181.175781 63.128906 184.085938 63.960938 187.070312 64.898438 C 188.125 65.222656 189.1875 65.523438 190.253906 65.824219 L 190.253906 66.535156 L 191.027344 66.671875 C 196.40625 67.851562 201.941406 71.417969 206.265625 74.714844 L 207.078125 75.332031 C 207.609375 75.742188 208.140625 76.15625 208.667969 76.570312 C 209.234375 77.019531 209.804688 77.453125 210.378906 77.886719 L 211.269531 78.558594 L 212.082031 79.167969 L 212.667969 79.691406 L 212.667969 80.402344 L 213.378906 80.402344 L 213.378906 81.113281 L 214.003906 81.378906 C 218.65625 83.972656 222.515625 91.011719 225.1875 95.457031 C 229.660156 103.066406 233.59375 112.269531 234.21875 121.183594 C 234.289062 122.140625 234.371094 123.058594 234.550781 123.996094 C 235.496094 130.28125 235.699219 137.6875 234.214844 143.914062 C 233.804688 145.714844 233.578125 147.554688 233.308594 149.386719 L 234.023438 149.589844 C 237.144531 150.511719 237.144531 150.511719 238.644531 151.164062 L 238.792969 149.933594 C 239.023438 148.078125 239.347656 146.242188 239.675781 144.394531 C 241.039062 136.484375 240.769531 128.160156 239.710938 120.226562 L 239.597656 119.335938 C 237.976562 107.730469 233.042969 96.59375 226.214844 87.136719 L 225.753906 86.5 C 222.230469 81.644531 218.46875 77.34375 213.734375 73.648438 C 212.71875 72.800781 211.699219 71.953125 210.679688 71.105469 C 209.9375 70.53125 209.253906 70.113281 208.398438 69.734375 L 208.398438 69.023438 L 207.664062 68.761719 C 206.4375 68.234375 205.34375 67.550781 204.21875 66.84375 C 196.75 62.289062 188.414062 59.332031 179.867188 57.578125 L 178.996094 57.398438 C 171.992188 56.019531 164.550781 56.167969 157.515625 57.289062 L 156.613281 57.421875 C 152.09375 58.09375 147.953125 59.144531 143.726562 60.875 C 142.941406 61.195312 142.152344 61.507812 141.363281 61.816406 C 136.699219 63.660156 132.050781 65.703125 127.984375 68.667969 L 127.007812 69.371094 C 126.332031 69.859375 125.660156 70.351562 124.988281 70.84375 C 124.226562 71.394531 123.460938 71.9375 122.691406 72.46875 C 121.609375 73.269531 120.726562 74.097656 119.800781 75.070312 C 119.386719 75.484375 118.96875 75.898438 118.554688 76.3125 L 117.90625 76.960938 C 115.53125 79.335938 115.53125 79.335938 114.882812 79.917969 C 108.570312 85.820312 103.679688 94.085938 100.585938 102.09375 L 100.0625 103.300781 C 98.332031 107.375 97.179688 111.582031 96.203125 115.894531 L 95.925781 117.085938 C 94.890625 121.851562 94.816406 126.597656 94.824219 131.453125 L 94.824219 132.308594 C 94.863281 144.859375 97.367188 156.777344 103.429688 167.875 L 103.785156 168.535156 C 106.152344 172.910156 108.941406 176.6875 112.328125 180.316406 L 113.265625 181.355469 C 115.089844 183.367188 116.972656 185.324219 118.910156 187.222656 C 124.386719 192.601562 124.386719 192.601562 125.492188 194.898438 C 125.78125 196.160156 125.796875 197.195312 125.492188 198.453125 C 125.101562 199.332031 124.714844 199.847656 124.070312 200.585938 C 123.171875 201.035156 122.535156 200.980469 121.535156 200.964844 L 120.554688 200.957031 L 119.800781 200.941406 L 119.800781 200.230469 L 119.160156 199.964844 C 118.25 199.449219 117.851562 198.941406 117.242188 198.097656 C 115.023438 195.128906 112.457031 192.507812 109.816406 189.925781 C 105.074219 185.289062 101.175781 180.613281 97.773438 174.925781 C 97.425781 174.347656 97.070312 173.773438 96.707031 173.203125 C 94.917969 170.304688 93.636719 167.226562 92.375 164.070312 C 92.082031 163.347656 91.785156 162.628906 91.476562 161.914062 C 86.066406 148.597656 85.269531 133.332031 87.09375 119.214844 C 87.457031 116.660156 87.960938 114.175781 88.648438 111.6875 C 88.851562 110.953125 89.03125 110.210938 89.21875 109.46875 C 90.84375 103.011719 93.570312 96.945312 96.671875 91.070312 L 97.199219 90.039062 C 100.085938 84.527344 103.867188 79.730469 108.054688 75.152344 C 108.660156 74.476562 109.25 73.78125 109.816406 73.070312 L 110.546875 72.226562 L 111.257812 72.226562 L 111.523438 71.601562 C 113.507812 68.054688 118.378906 65.367188 121.578125 62.976562 L 122.535156 62.257812 C 127.898438 58.324219 134.210938 55.289062 140.4375 53.023438 C 140.890625 52.851562 141.34375 52.675781 141.800781 52.503906 C 144.632812 51.4375 147.472656 50.59375 150.421875 49.910156 L 151.339844 49.699219 C 156.273438 48.613281 161.128906 48.28125 166.167969 48.308594 " fill-opacity="1" fill-rule="nonzero"/><path fill="#69e9bd" d="M 166.167969 48.308594 C 167.078125 48.3125 167.988281 48.308594 168.894531 48.304688 C 174.808594 48.296875 180.433594 48.925781 186.183594 50.3125 L 187.554688 50.625 C 190.023438 51.210938 192.246094 51.921875 194.523438 53.023438 C 195.21875 53.289062 195.914062 53.550781 196.613281 53.800781 C 201.589844 55.699219 206.324219 58.113281 210.890625 60.84375 L 210.890625 61.554688 L 211.671875 61.847656 C 212.660156 62.265625 213.492188 62.746094 214.382812 63.335938 L 215.234375 63.890625 L 215.871094 64.402344 L 215.871094 65.113281 L 217.296875 65.46875 L 217.296875 66.179688 L 217.875 66.429688 C 218.972656 67.03125 219.902344 67.800781 220.855469 68.601562 L 221.417969 69.0625 C 222.570312 70.023438 223.5 71.035156 224.414062 72.226562 C 225.203125 73.035156 226.011719 73.828125 226.835938 74.605469 L 227.257812 75.070312 L 227.257812 75.78125 L 227.972656 75.78125 C 228.597656 76.496094 229.195312 77.226562 229.773438 77.980469 L 230.300781 78.664062 C 234.960938 84.742188 238.769531 91.171875 241.847656 98.183594 L 242.1875 98.953125 C 244.265625 103.75 245.574219 108.761719 246.832031 113.828125 L 247.132812 115.035156 C 247.640625 117.15625 248.03125 119.15625 248.121094 121.335938 C 248.144531 121.820312 248.164062 122.304688 248.1875 122.785156 L 248.253906 124.140625 C 248.382812 125.84375 248.53125 127.539062 248.792969 129.230469 C 249.960938 138.074219 248.339844 148.121094 245.40625 156.496094 C 244.128906 155.761719 242.988281 154.957031 241.847656 154.027344 L 240.957031 153.308594 L 240.066406 152.582031 C 239.476562 152.109375 238.882812 151.632812 238.289062 151.164062 L 238.503906 150.375 C 241.050781 140.601562 241.039062 130.191406 239.710938 120.226562 L 239.597656 119.335938 C 237.976562 107.730469 233.042969 96.59375 226.214844 87.136719 L 225.753906 86.5 C 222.230469 81.644531 218.46875 77.34375 213.734375 73.648438 C 212.71875 72.800781 211.699219 71.953125 210.679688 71.105469 C 209.9375 70.53125 209.253906 70.113281 208.398438 69.734375 L 208.398438 69.023438 L 207.664062 68.761719 C 206.4375 68.234375 205.34375 67.550781 204.21875 66.84375 C 196.75 62.289062 188.414062 59.332031 179.867188 57.578125 L 178.996094 57.398438 C 171.992188 56.019531 164.546875 56.167969 157.515625 57.289062 L 156.613281 57.421875 C 152.09375 58.09375 147.953125 59.144531 143.726562 60.875 C 142.941406 61.195312 142.152344 61.507812 141.363281 61.816406 C 136.699219 63.660156 132.050781 65.703125 127.984375 68.667969 L 127.007812 69.371094 C 126.332031 69.859375 125.660156 70.351562 124.988281 70.84375 C 124.226562 71.394531 123.460938 71.9375 122.691406 72.46875 C 121.609375 73.269531 120.726562 74.097656 119.800781 75.070312 C 119.386719 75.484375 118.96875 75.898438 118.554688 76.3125 L 117.90625 76.960938 C 115.53125 79.335938 115.53125 79.335938 114.882812 79.917969 C 108.570312 85.820312 103.679688 94.085938 100.585938 102.09375 L 100.0625 103.300781 C 98.332031 107.375 97.179688 111.582031 96.203125 115.894531 L 95.925781 117.085938 C 94.890625 121.851562 94.816406 126.597656 94.824219 131.453125 L 94.824219 132.308594 C 94.863281 144.859375 97.367188 156.777344 103.429688 167.875 L 103.785156 168.535156 C 106.152344 172.910156 108.941406 176.6875 112.328125 180.316406 L 113.265625 181.355469 C 115.089844 183.367188 116.972656 185.324219 118.910156 187.222656 C 124.386719 192.601562 124.386719 192.601562 125.492188 194.898438 C 125.78125 196.160156 125.796875 197.195312 125.492188 198.453125 C 125.101562 199.332031 124.714844 199.847656 124.070312 200.585938 C 123.171875 201.035156 122.535156 200.980469 121.535156 200.964844 L 120.554688 200.957031 L 119.800781 200.941406 L 119.800781 200.230469 L 119.160156 199.964844 C 118.25 199.449219 117.851562 198.941406 117.242188 198.097656 C 115.023438 195.128906 112.457031 192.507812 109.816406 189.925781 C 105.074219 185.289062 101.175781 180.613281 97.773438 174.925781 C 97.425781 174.347656 97.070312 173.773438 96.707031 173.203125 C 94.917969 170.304688 93.636719 167.226562 92.375 164.070312 C 92.082031 163.347656 91.785156 162.628906 91.476562 161.914062 C 86.066406 148.597656 85.269531 133.332031 87.09375 119.214844 C 87.457031 116.660156 87.960938 114.175781 88.648438 111.6875 C 88.851562 110.953125 89.03125 110.210938 89.21875 109.46875 C 90.84375 103.011719 93.570312 96.945312 96.671875 91.070312 L 97.199219 90.039062 C 100.085938 84.527344 103.867188 79.730469 108.054688 75.152344 C 108.660156 74.476562 109.25 73.78125 109.816406 73.070312 L 110.546875 72.226562 L 111.257812 72.226562 L 111.523438 71.601562 C 113.507812 68.054688 118.378906 65.367188 121.578125 62.976562 L 122.535156 62.257812 C 127.898438 58.324219 134.210938 55.289062 140.4375 53.023438 C 140.890625 52.851562 141.34375 52.675781 141.800781 52.503906 C 144.632812 51.4375 147.472656 50.59375 150.421875 49.910156 L 151.339844 49.699219 C 156.273438 48.613281 161.128906 48.28125 166.167969 48.308594 " fill-opacity="1" fill-rule="nonzero"/><path fill="#69e9bd" d="M 174.242188 62.265625 L 175.136719 62.363281 C 179.507812 62.851562 183.582031 63.761719 187.761719 65.113281 C 188.589844 65.355469 189.421875 65.59375 190.253906 65.824219 L 190.253906 66.535156 L 191.027344 66.671875 C 196.40625 67.851562 201.941406 71.417969 206.265625 74.714844 L 207.078125 75.332031 C 207.609375 75.742188 208.140625 76.15625 208.667969 76.570312 C 209.234375 77.019531 209.804688 77.453125 210.378906 77.886719 L 211.269531 78.558594 L 212.082031 79.167969 L 212.667969 79.691406 L 212.667969 80.402344 L 213.378906 80.402344 L 213.378906 81.113281 L 214.003906 81.378906 C 218.65625 83.972656 222.515625 91.011719 225.1875 95.457031 C 229.660156 103.066406 233.59375 112.269531 234.21875 121.183594 C 234.289062 122.140625 234.371094 123.058594 234.550781 123.996094 C 235.550781 130.640625 235.601562 138.203125 234.019531 144.761719 C 233.882812 145.488281 233.75 146.210938 233.621094 146.9375 L 233.4375 147.945312 L 233.308594 148.675781 C 230.683594 148.40625 228.085938 148.019531 225.480469 147.609375 L 225.609375 146.492188 C 225.777344 145.054688 225.933594 143.617188 226.085938 142.179688 C 226.15625 141.535156 226.230469 140.894531 226.308594 140.253906 C 227.613281 129.453125 226.367188 118.253906 222.277344 108.136719 C 220.40625 103.765625 218.382812 99.503906 215.515625 95.691406 L 214.699219 94.574219 C 210.472656 88.863281 205.246094 82.914062 198.792969 79.691406 L 198.792969 78.980469 L 198.167969 78.851562 C 197.34375 78.617188 196.699219 78.304688 195.949219 77.886719 L 195.128906 77.4375 L 194.257812 76.957031 C 191.214844 75.328125 188.183594 74.035156 184.914062 72.9375 L 183.785156 72.53125 C 175.785156 69.8125 165.980469 69.449219 157.671875 70.957031 C 156.789062 71.140625 155.90625 71.328125 155.027344 71.511719 C 154.078125 71.652344 153.128906 71.761719 152.179688 71.871094 L 152.179688 72.582031 L 150.890625 72.917969 C 148.007812 73.6875 145.273438 74.476562 142.574219 75.78125 L 141.863281 75.78125 L 141.863281 76.492188 L 140.726562 77.023438 C 137.996094 78.390625 135.359375 80.019531 132.898438 81.824219 L 131.898438 82.535156 L 131.183594 82.535156 L 130.472656 83.957031 L 129.761719 83.957031 L 129.761719 84.667969 L 128.695312 84.667969 L 128.449219 85.292969 C 127.863281 86.296875 127.117188 86.792969 126.203125 87.511719 C 125.875 87.894531 125.558594 88.277344 125.246094 88.667969 L 124.425781 89.648438 L 123.714844 89.648438 L 123.445312 90.445312 C 122.957031 91.515625 122.410156 92.023438 121.578125 92.847656 C 117.289062 98.453125 114.011719 104.503906 111.878906 111.226562 C 111.691406 111.804688 111.496094 112.378906 111.285156 112.945312 C 108.1875 121.878906 107.882812 131.921875 109.125 141.207031 L 109.234375 142.066406 C 109.742188 145.871094 110.660156 149.332031 111.96875 152.9375 C 112.136719 153.457031 112.300781 153.96875 112.464844 154.488281 C 113.039062 156.210938 113.769531 157.839844 114.550781 159.472656 L 114.980469 160.367188 C 116.261719 163.019531 117.703125 165.476562 119.503906 167.8125 C 121.734375 170.710938 121.734375 170.710938 122 172.273438 C 121.933594 173.566406 121.933594 173.566406 121.535156 174.5625 C 120.75 175.476562 120.199219 175.9375 119.089844 176.40625 C 118.101562 176.574219 117.21875 176.644531 116.242188 176.40625 C 112.824219 174.078125 110.671875 169.953125 108.761719 166.382812 C 108.421875 165.765625 108.078125 165.148438 107.730469 164.535156 C 103.835938 157.476562 101.503906 149.175781 100.585938 141.207031 L 100.457031 140.109375 C 99.160156 128.285156 100.703125 116.8125 104.855469 105.648438 L 105.148438 104.851562 C 107.488281 98.617188 111.09375 92.476562 115.53125 87.511719 C 115.921875 87 116.304688 86.480469 116.6875 85.957031 C 117.523438 84.832031 118.421875 83.863281 119.445312 82.890625 L 120.089844 82.210938 C 122.40625 79.796875 124.960938 77.785156 127.628906 75.78125 L 128.246094 75.3125 C 134.71875 70.4375 141.941406 66.804688 149.6875 64.421875 L 150.679688 64.117188 C 158.144531 61.933594 166.523438 61.402344 174.242188 62.265625 " fill-opacity="1" fill-rule="nonzero"/><path fill="#69e9bd" d="M 178.867188 76.847656 L 179.539062 77.035156 C 183.183594 78.074219 186.722656 79.394531 190.253906 80.757812 L 190.253906 81.46875 L 191.308594 81.707031 C 193 82.1875 194.34375 83.113281 195.789062 84.089844 L 196.578125 84.609375 C 197.082031 84.945312 197.585938 85.28125 198.089844 85.621094 C 198.539062 85.921875 198.996094 86.21875 199.453125 86.507812 C 199.960938 86.828125 200.445312 87.167969 200.929688 87.511719 L 200.929688 88.222656 L 201.570312 88.519531 C 206.316406 91.058594 209.949219 96.941406 212.753906 101.363281 C 217.925781 109.753906 221.035156 119.480469 221.328125 129.351562 C 221.339844 130.277344 221.34375 131.210938 221.34375 132.140625 L 221.34375 132.875 C 221.34375 137.40625 220.820312 141.769531 219.789062 146.183594 L 219.625 146.964844 L 219.433594 147.609375 C 218.378906 148.320312 217.214844 148.53125 215.984375 148.804688 C 214.265625 149.21875 212.742188 149.761719 211.15625 150.53125 C 210.535156 150.808594 210.535156 150.808594 209.824219 150.808594 C 210.058594 149.488281 210.40625 148.222656 210.789062 146.9375 C 213.546875 137.546875 213.621094 128.59375 211.390625 119.074219 C 210.085938 113.855469 207.9375 108.988281 204.84375 104.582031 C 204.574219 104.183594 204.308594 103.785156 204.046875 103.386719 C 199.480469 96.652344 193.1875 91.734375 185.917969 88.136719 C 182.191406 86.503906 178.3125 85.375 174.292969 84.757812 C 170.269531 84.136719 166.234375 84.046875 162.1875 84.480469 C 154.574219 85.457031 147.382812 88.351562 141.261719 92.976562 C 138.191406 95.375 135.492188 98.078125 132.949219 101.019531 L 132.253906 101.738281 L 131.539062 101.738281 L 131.320312 102.601562 C 130.902344 103.679688 130.523438 104.367188 129.875 105.292969 C 128.40625 107.421875 127.308594 109.71875 126.203125 112.046875 L 125.710938 113.015625 C 122.363281 120.140625 121.921875 128.835938 122.289062 136.582031 C 122.484375 138.632812 122.894531 140.625 123.359375 142.628906 L 123.660156 144.050781 C 124.546875 148.070312 125.894531 152.128906 128.050781 155.65625 C 128.695312 156.855469 128.894531 157.53125 128.894531 158.875 C 128.851562 159.886719 128.851562 159.886719 128.695312 160.761719 C 127.984375 161.695312 127.984375 161.695312 126.914062 162.183594 C 125.582031 162.539062 124.519531 162.660156 123.175781 162.308594 C 122.289062 161.828125 122.289062 161.828125 121.59375 161 C 118.847656 156.503906 116.9375 151.667969 115.574219 146.582031 L 115.367188 145.816406 C 114.238281 141.316406 113.972656 136.839844 113.996094 132.226562 L 113.996094 131.398438 C 114.015625 127.351562 114.152344 123.449219 115.175781 119.515625 L 115.398438 118.621094 C 117.917969 108.808594 122.148438 99.992188 129.253906 92.664062 C 129.757812 92.140625 130.257812 91.605469 130.75 91.070312 C 135.296875 86.234375 140.882812 82.886719 146.84375 80.046875 L 147.535156 79.714844 C 156.636719 75.472656 169.167969 73.96875 178.867188 76.847656 " fill-opacity="1" fill-rule="nonzero"/><g clip-path="url(#25638082e3)"><path fill="#fefefe" d="M 289.617188 161.242188 C 291.15625 161.730469 292.65625 162.292969 294.152344 162.894531 L 294.152344 163.605469 L 294.867188 163.804688 C 297.425781 165.03125 299.613281 167.375 301.273438 169.652344 C 303.351562 173.105469 304.167969 176.207031 304.253906 180.207031 C 304.242188 183.519531 303.652344 186.65625 302.109375 189.625 C 301.515625 190.582031 300.882812 191.507812 300.203125 192.410156 L 299.746094 193.050781 C 297.628906 195.820312 294.453125 197.464844 291.304688 198.808594 C 287.410156 200.089844 283.417969 200.125 279.429688 199.332031 C 277.40625 198.878906 275.636719 198.101562 273.875 197.03125 L 273.875 196.320312 L 273.070312 196.042969 C 271.140625 195.183594 269.867188 193.542969 268.570312 191.921875 C 266.398438 188.8125 265.273438 185.246094 264.820312 181.5 C 264.699219 178.027344 265.414062 174.65625 266.855469 171.496094 C 268.703125 168.207031 271.195312 165.523438 274.339844 163.441406 C 279.035156 160.765625 284.34375 159.726562 289.617188 161.242188 M 251.8125 293.394531 C 252.617188 293.300781 252.617188 293.300781 253.632812 293.300781 L 254.785156 293.292969 L 256.035156 293.300781 L 257.324219 293.296875 C 258.226562 293.296875 259.125 293.296875 260.03125 293.300781 C 261.402344 293.300781 262.777344 293.300781 264.148438 293.296875 C 265.023438 293.296875 265.902344 293.296875 266.777344 293.300781 L 268.011719 293.292969 C 271.042969 293.3125 274 293.523438 276.761719 294.859375 L 277.566406 295.238281 L 278.144531 295.523438 L 278.144531 296.234375 L 278.792969 296.480469 C 279.566406 296.945312 279.566406 296.945312 280.078125 297.757812 L 280.523438 298.703125 L 280.972656 299.644531 C 282.1875 302.4375 281.921875 305.691406 281.699219 308.683594 C 281.296875 310.75 280.546875 312.371094 279.234375 314.015625 C 278.371094 314.921875 277.503906 315.609375 276.363281 316.152344 L 275.652344 316.152344 C 277.125 319.1875 278.738281 322.082031 280.527344 324.945312 L 281.125 325.90625 L 281.664062 326.773438 C 282.054688 327.527344 282.054688 327.527344 282.054688 328.59375 C 279.023438 329.128906 275.769531 329.625 272.804688 328.59375 C 270.570312 326.605469 269.378906 323.761719 268.253906 321.046875 C 267.839844 320.039062 267.839844 320.039062 267.234375 319.085938 L 266.753906 318.28125 L 266.753906 317.570312 L 260.707031 317.570312 L 260.351562 328.59375 L 255.925781 328.617188 L 254.527344 328.625 L 253.433594 328.628906 L 252.3125 328.636719 L 251.457031 328.59375 L 251.101562 328.238281 C 251.0625 327.183594 251.046875 326.132812 251.046875 325.074219 L 251.046875 324.070312 C 251.042969 322.96875 251.039062 321.863281 251.039062 320.761719 L 251.035156 318.472656 C 251.035156 316.871094 251.03125 315.269531 251.03125 313.664062 C 251.03125 311.609375 251.03125 309.550781 251.023438 307.492188 C 251.019531 305.921875 251.015625 304.34375 251.015625 302.765625 C 251.015625 302.007812 251.015625 301.246094 251.011719 300.488281 C 251.011719 299.429688 251.011719 298.371094 251.011719 297.3125 C 251.011719 296.996094 251.011719 296.679688 251.007812 296.351562 C 251.011719 295.601562 251.050781 294.851562 251.101562 294.101562 Z M 325.433594 292.925781 C 326.199219 292.925781 326.96875 292.917969 327.730469 292.90625 C 330.285156 292.894531 332.402344 292.976562 334.71875 294.101562 L 335.535156 294.421875 C 337.183594 295.164062 338.363281 296.109375 339.507812 297.515625 C 340.519531 299.09375 341.109375 300.804688 341.480469 302.636719 L 341.480469 305.480469 L 332.226562 305.480469 L 331.160156 301.570312 C 329.8125 300.648438 328.871094 300.519531 327.253906 300.375 C 326.769531 300.375 326.285156 300.382812 325.800781 300.390625 L 325.066406 300.386719 C 323.53125 300.40625 322.261719 300.628906 320.839844 301.214844 C 320.121094 301.761719 320.121094 301.761719 319.773438 302.636719 C 319.605469 304.132812 319.753906 305.453125 320.128906 306.902344 L 320.925781 306.929688 C 323.863281 307.03125 326.800781 307.140625 329.738281 307.257812 L 330.675781 307.292969 C 335.457031 307.476562 335.457031 307.476562 337.566406 308.683594 L 338.28125 309.035156 C 339.394531 309.628906 340.210938 310.191406 340.972656 311.210938 C 341.847656 312.707031 342.441406 314.050781 342.546875 315.792969 L 342.597656 316.5625 C 342.699219 319.027344 342.265625 321.285156 341.476562 323.613281 C 340.640625 325.179688 339.761719 326.207031 338.277344 327.171875 C 333.285156 329.671875 327.722656 329.601562 322.265625 329.304688 C 319.324219 329.046875 316.582031 328.40625 314.113281 326.742188 C 312.558594 325.40625 311.621094 323.875 310.871094 321.984375 C 310.34375 320.382812 309.992188 318.914062 310.167969 317.214844 L 310.523438 316.859375 C 311.183594 316.828125 311.84375 316.824219 312.5 316.824219 L 313.71875 316.828125 L 314.992188 316.839844 L 316.273438 316.84375 C 317.320312 316.847656 318.367188 316.851562 319.417969 316.859375 L 320.128906 320.414062 L 320.839844 320.414062 L 321.277344 320.941406 L 321.910156 321.480469 C 322.976562 321.628906 322.976562 321.628906 324.195312 321.585938 L 325.542969 321.574219 L 326.957031 321.550781 C 327.433594 321.542969 327.90625 321.539062 328.382812 321.535156 C 329.546875 321.519531 330.710938 321.503906 331.871094 321.480469 L 331.871094 320.769531 L 332.398438 320.292969 L 332.941406 319.703125 C 333.15625 318.621094 333.125 317.589844 332.941406 316.503906 C 332.140625 315.625 331.578125 315.457031 330.449219 315.082031 C 329.605469 315.042969 328.757812 315.019531 327.914062 315.007812 L 326.371094 314.976562 C 325.566406 314.960938 324.761719 314.949219 323.960938 314.9375 C 317.589844 314.859375 317.589844 314.859375 314.792969 313.660156 C 313.402344 312.699219 312.3125 311.644531 311.28125 310.304688 C 310.171875 307.785156 309.933594 305.359375 310.167969 302.636719 C 310.488281 300.660156 311.015625 298.875 312.125 297.191406 C 313.496094 295.53125 315.300781 294.539062 317.28125 293.75 C 319.933594 292.871094 322.675781 292.914062 325.433594 292.925781 M 23.160156 292.878906 C 23.878906 292.882812 24.597656 292.871094 25.3125 292.859375 C 29.058594 292.863281 32.164062 293.53125 35.425781 295.394531 C 36.835938 296.421875 37.773438 297.550781 38.617188 299.078125 C 39.414062 301.160156 39.535156 303.265625 39.738281 305.480469 L 30.484375 305.480469 L 29.417969 301.925781 C 28.125 300.839844 28.125 300.839844 26.925781 300.503906 C 25.945312 300.449219 24.976562 300.421875 23.992188 300.414062 L 23.195312 300.390625 C 21.332031 300.378906 20.042969 300.6875 18.390625 301.570312 C 17.792969 302.351562 17.792969 302.351562 17.675781 303.347656 C 17.777344 304.84375 17.90625 305.648438 18.746094 306.902344 C 19.746094 307.082031 19.746094 307.082031 20.921875 307.074219 L 22.265625 307.105469 L 23.679688 307.125 C 33.675781 307.328125 33.675781 307.328125 36.535156 309.039062 C 37.777344 309.824219 38.6875 310.652344 39.496094 311.886719 C 40.640625 314.246094 40.691406 316.722656 40.585938 319.296875 C 40.445312 321.242188 39.976562 322.972656 39.027344 324.683594 C 37.660156 326.363281 36.152344 327.234375 34.175781 328.082031 C 31.039062 329.203125 27.8125 329.433594 24.503906 329.414062 L 23.375 329.410156 C 19.8125 329.359375 16.128906 329.0625 12.960938 327.273438 C 11.226562 325.996094 9.957031 324.34375 8.980469 322.4375 C 8.425781 320.769531 8.425781 320.769531 8.425781 316.859375 L 17.320312 316.859375 L 18.746094 321.125 L 19.8125 321.125 L 19.8125 321.835938 C 21.324219 321.808594 22.835938 321.769531 24.347656 321.726562 L 25.648438 321.703125 L 26.902344 321.664062 L 28.050781 321.636719 C 29.082031 321.554688 29.082031 321.554688 29.863281 320.9375 L 30.484375 320.414062 L 31.195312 320.414062 L 30.839844 315.792969 C 29.066406 315.21875 27.558594 314.992188 25.675781 314.972656 L 24.148438 314.945312 C 23.363281 314.933594 22.574219 314.925781 21.785156 314.917969 C 18.667969 314.886719 15.632812 314.84375 12.695312 313.660156 C 11.160156 312.738281 10.113281 311.570312 9.160156 310.058594 C 8.292969 308.191406 8.257812 306.371094 8.246094 304.347656 L 8.238281 303.425781 C 8.277344 301.480469 8.574219 300.09375 9.492188 298.367188 C 10.617188 296.734375 11.972656 295.285156 13.773438 294.386719 C 16.867188 293.132812 19.839844 292.855469 23.160156 292.878906 M 90.621094 293.394531 C 91.507812 293.355469 92.382812 293.34375 93.269531 293.347656 L 94.109375 293.34375 C 95.027344 293.34375 95.949219 293.34375 96.871094 293.34375 L 98.78125 293.34375 C 100.117188 293.34375 101.457031 293.34375 102.789062 293.347656 C 104.507812 293.347656 106.226562 293.347656 107.941406 293.34375 C 109.257812 293.34375 110.574219 293.34375 111.890625 293.34375 C 112.523438 293.34375 113.15625 293.34375 113.789062 293.34375 C 114.671875 293.34375 115.554688 293.34375 116.441406 293.347656 L 117.238281 293.34375 C 117.855469 293.347656 118.472656 293.367188 119.089844 293.394531 L 119.445312 293.75 C 119.480469 294.246094 119.488281 294.746094 119.488281 295.246094 L 119.492188 296.160156 L 119.488281 297.125 L 119.492188 298.085938 L 119.488281 299.003906 L 119.488281 299.847656 L 119.445312 300.503906 L 119.089844 300.859375 C 118.550781 300.890625 118.015625 300.90625 117.480469 300.90625 L 116.445312 300.910156 L 115.3125 300.90625 L 114.160156 300.910156 C 113.347656 300.910156 112.539062 300.90625 111.726562 300.90625 C 110.492188 300.902344 109.253906 300.90625 108.019531 300.910156 C 107.234375 300.910156 106.449219 300.910156 105.660156 300.90625 L 104.542969 300.910156 L 103.488281 300.90625 L 102.566406 300.90625 C 101.542969 300.855469 100.527344 300.671875 99.515625 300.503906 L 99.515625 307.257812 L 102.695312 307.25 C 103.707031 307.246094 104.71875 307.242188 105.730469 307.238281 C 106.4375 307.238281 107.140625 307.234375 107.847656 307.230469 C 108.859375 307.230469 109.871094 307.226562 110.882812 307.226562 L 111.839844 307.21875 C 112.597656 307.21875 113.351562 307.238281 114.105469 307.257812 L 114.460938 307.613281 L 114.460938 314.726562 L 99.515625 314.726562 L 99.515625 321.480469 L 101.304688 321.476562 C 103.492188 321.46875 105.675781 321.464844 107.859375 321.460938 C 108.804688 321.460938 109.753906 321.460938 110.699219 321.457031 C 112.058594 321.449219 113.414062 321.449219 114.773438 321.445312 L 116.0625 321.441406 L 118.304688 321.441406 L 119.089844 321.480469 L 119.445312 321.835938 C 119.472656 322.339844 119.484375 322.84375 119.480469 323.351562 L 119.472656 324.269531 L 119.464844 325.238281 L 119.460938 326.210938 C 119.457031 327.003906 119.449219 327.800781 119.445312 328.59375 C 115.691406 328.601562 111.941406 328.605469 108.1875 328.613281 C 106.445312 328.613281 104.703125 328.617188 102.960938 328.621094 C 101.285156 328.625 99.601562 328.625 97.921875 328.625 C 97.28125 328.628906 96.640625 328.628906 95.996094 328.632812 C 95.101562 328.632812 94.203125 328.636719 93.304688 328.636719 L 92.496094 328.640625 C 91.871094 328.636719 91.246094 328.617188 90.621094 328.59375 L 90.265625 328.238281 C 90.230469 327.167969 90.214844 326.105469 90.21875 325.035156 L 90.21875 324.019531 C 90.214844 322.902344 90.214844 321.785156 90.21875 320.671875 L 90.214844 318.355469 C 90.214844 316.734375 90.21875 315.117188 90.21875 313.496094 C 90.222656 311.414062 90.21875 309.332031 90.21875 307.25 C 90.214844 305.65625 90.214844 304.058594 90.21875 302.464844 C 90.21875 301.695312 90.21875 300.929688 90.214844 300.164062 C 90.214844 299.089844 90.214844 298.019531 90.21875 296.945312 L 90.214844 295.976562 C 90.21875 295.234375 90.242188 294.492188 90.265625 293.75 Z M 219.433594 293.394531 C 220.359375 293.269531 220.359375 293.269531 221.523438 293.289062 L 222.78125 293.300781 C 223.21875 293.308594 223.652344 293.316406 224.097656 293.324219 L 225.429688 293.339844 C 226.515625 293.355469 227.597656 293.371094 228.683594 293.394531 C 230.054688 296.269531 231.1875 299.191406 232.261719 302.191406 C 232.605469 303.140625 232.949219 304.089844 233.296875 305.035156 L 233.5625 305.765625 C 234.523438 308.394531 235.539062 311.007812 236.554688 313.613281 L 237.621094 316.351562 L 237.878906 317.019531 C 238.769531 319.304688 239.644531 321.59375 240.515625 323.882812 L 240.929688 324.957031 L 241.296875 325.945312 L 241.621094 326.796875 C 241.847656 327.527344 241.847656 327.527344 241.847656 328.59375 L 232.953125 328.59375 L 230.460938 322.546875 L 217.296875 322.191406 L 216.226562 325.75 L 215.160156 328.59375 L 206.265625 328.59375 C 206.507812 327.140625 206.6875 326.132812 207.203125 324.820312 L 207.554688 323.910156 L 207.933594 322.949219 L 208.714844 320.929688 L 209.105469 319.929688 C 209.589844 318.671875 210.066406 317.410156 210.535156 316.152344 C 212.34375 311.316406 214.183594 306.5 216.070312 301.695312 C 216.878906 299.621094 217.628906 297.53125 218.347656 295.429688 C 218.71875 294.457031 218.71875 294.457031 219.433594 293.394531 " fill-opacity="1" fill-rule="nonzero"/></g><path fill="#69e9bd" d="M 136.082031 206.316406 C 137.546875 206.265625 139.011719 206.28125 140.476562 206.304688 C 141.140625 206.304688 141.800781 206.304688 142.460938 206.300781 C 144.257812 206.296875 146.046875 206.3125 147.839844 206.332031 C 149.714844 206.347656 151.59375 206.347656 153.46875 206.351562 C 156.617188 206.359375 159.765625 206.375 162.914062 206.398438 C 167.359375 206.429688 171.804688 206.445312 176.25 206.457031 C 182.195312 206.476562 188.144531 206.496094 194.09375 206.539062 C 194.738281 206.542969 195.386719 206.550781 196.027344 206.550781 C 196.90625 206.554688 197.785156 206.5625 198.664062 206.570312 L 199.441406 206.570312 C 201.203125 206.589844 201.203125 206.589844 201.996094 206.988281 L 201.996094 207.699219 L 203.0625 208.054688 C 203.484375 208.609375 203.484375 208.609375 203.773438 209.476562 C 203.875 210.523438 203.9375 211.304688 203.773438 212.320312 C 203.171875 213.34375 203.171875 213.34375 202.351562 214.097656 C 200.878906 214.855469 199.511719 214.910156 197.886719 214.898438 L 197.074219 214.90625 C 196.183594 214.90625 195.289062 214.90625 194.394531 214.902344 C 193.753906 214.902344 193.109375 214.90625 192.46875 214.90625 C 190.726562 214.910156 188.984375 214.910156 187.242188 214.90625 C 185.417969 214.90625 183.59375 214.90625 181.769531 214.90625 C 178.707031 214.910156 175.644531 214.90625 172.582031 214.902344 C 169.042969 214.898438 165.5 214.898438 161.960938 214.90625 C 158.921875 214.90625 155.878906 214.910156 152.84375 214.90625 C 151.027344 214.90625 149.210938 214.90625 147.394531 214.910156 C 145.6875 214.910156 143.980469 214.910156 142.273438 214.902344 C 141.648438 214.902344 141.019531 214.902344 140.398438 214.90625 C 139.539062 214.90625 138.683594 214.90625 137.832031 214.898438 L 137.082031 214.90625 C 135.578125 214.890625 134.351562 214.679688 132.964844 214.097656 C 132.117188 213.34375 132.117188 213.34375 131.539062 212.320312 C 131.328125 211.128906 131.253906 210.597656 131.539062 209.476562 C 131.949219 208.570312 132.417969 207.964844 133.089844 207.234375 C 134.101562 206.589844 134.890625 206.410156 136.082031 206.316406 " fill-opacity="1" fill-rule="nonzero"/><path fill="#a0eed4" d="M 142.207031 219.171875 C 143.542969 219.074219 144.859375 219.066406 146.199219 219.09375 C 146.714844 219.09375 147.222656 219.089844 147.734375 219.085938 C 149.121094 219.078125 150.507812 219.09375 151.890625 219.109375 C 153.347656 219.121094 154.796875 219.121094 156.253906 219.121094 C 158.691406 219.125 161.128906 219.136719 163.566406 219.160156 C 166.382812 219.183594 169.203125 219.191406 172.015625 219.195312 C 175.019531 219.199219 178.023438 219.210938 181.027344 219.226562 C 181.894531 219.230469 182.753906 219.230469 183.617188 219.230469 C 184.976562 219.238281 186.335938 219.246094 187.695312 219.261719 C 188.191406 219.265625 188.691406 219.265625 189.1875 219.265625 C 189.867188 219.265625 190.550781 219.277344 191.230469 219.285156 L 192.382812 219.292969 C 193.644531 219.457031 194.5 219.855469 195.59375 220.5 C 196.257812 221.300781 196.257812 221.300781 196.660156 222.277344 C 196.804688 223.628906 196.773438 224.492188 196.234375 225.742188 C 195.488281 226.671875 194.878906 227.082031 193.8125 227.609375 C 192.777344 227.746094 192.777344 227.746094 191.613281 227.75 L 190.269531 227.761719 L 188.808594 227.757812 C 188.292969 227.761719 187.777344 227.765625 187.261719 227.769531 C 185.863281 227.773438 184.464844 227.777344 183.066406 227.777344 C 181.898438 227.777344 180.730469 227.777344 179.5625 227.78125 C 176.808594 227.789062 174.050781 227.792969 171.292969 227.789062 C 168.453125 227.785156 165.609375 227.792969 162.769531 227.808594 C 160.328125 227.816406 157.886719 227.824219 155.445312 227.820312 C 153.988281 227.820312 152.53125 227.824219 151.074219 227.832031 C 149.703125 227.839844 148.332031 227.835938 146.960938 227.832031 C 146.457031 227.832031 145.957031 227.832031 145.457031 227.835938 C 141.675781 227.871094 141.675781 227.871094 140.378906 227.226562 C 139.617188 226.617188 139.09375 225.992188 138.65625 225.121094 C 138.507812 224.023438 138.445312 223.339844 138.65625 222.277344 C 139.460938 220.6875 140.445312 219.605469 142.207031 219.171875 " fill-opacity="1" fill-rule="nonzero"/><path fill="#69e9bd" d="M 174.0625 246.089844 C 174.808594 246.082031 175.554688 246.074219 176.296875 246.066406 L 177.484375 246.058594 C 179.023438 246.121094 180.398438 246.339844 181.710938 247.167969 C 182.464844 247.921875 182.839844 248.636719 183.136719 249.65625 C 183.453125 251.652344 183.117188 253.582031 182.480469 255.480469 C 181.523438 257.640625 180.214844 259.539062 178.355469 261.003906 C 176.195312 262.367188 173.921875 263.390625 171.359375 263.625 C 170.132812 263.667969 168.910156 263.667969 167.679688 263.660156 L 166.425781 263.667969 C 163.300781 263.660156 160.640625 263.183594 157.847656 261.769531 C 155.851562 260.414062 154.460938 258.464844 153.246094 256.410156 C 152.449219 254.441406 152.074219 252.515625 152.203125 250.390625 C 152.378906 249.332031 152.597656 248.847656 153.183594 247.898438 C 153.929688 247.195312 154.441406 246.84375 155.382812 246.457031 C 156.191406 246.359375 156.191406 246.359375 157.09375 246.34375 L 158.117188 246.324219 L 159.226562 246.308594 L 160.378906 246.289062 C 161.597656 246.269531 162.816406 246.25 164.03125 246.230469 L 166.449219 246.195312 C 168.984375 246.148438 171.527344 246.121094 174.0625 246.089844 " fill-opacity="1" fill-rule="nonzero"/><path fill="#69e9bd" d="M 148.992188 232.144531 L 149.84375 232.144531 L 150.820312 232.136719 L 151.890625 232.140625 L 153.019531 232.136719 C 154.253906 232.132812 155.488281 232.136719 156.722656 232.136719 L 159.296875 232.136719 C 161.089844 232.132812 162.890625 232.136719 164.6875 232.140625 C 166.992188 232.144531 169.296875 232.140625 171.601562 232.136719 C 173.371094 232.132812 175.140625 232.132812 176.910156 232.136719 C 177.757812 232.136719 178.609375 232.136719 179.457031 232.136719 C 180.648438 232.132812 181.835938 232.136719 183.019531 232.140625 L 184.089844 232.136719 L 185.070312 232.144531 L 185.921875 232.144531 C 186.804688 232.246094 187.363281 232.488281 188.117188 232.945312 C 188.921875 233.699219 188.921875 233.699219 189.539062 234.722656 C 189.722656 235.703125 189.707031 236.582031 189.539062 237.566406 C 189.074219 238.589844 189.074219 238.589844 188.472656 239.34375 C 187.367188 240.078125 186.917969 240.242188 185.625 240.414062 C 184.472656 240.460938 183.320312 240.464844 182.164062 240.460938 L 181.113281 240.46875 C 179.96875 240.472656 178.824219 240.472656 177.679688 240.472656 L 175.289062 240.472656 C 173.617188 240.476562 171.945312 240.476562 170.273438 240.476562 C 168.136719 240.476562 166 240.480469 163.859375 240.488281 C 162.214844 240.492188 160.566406 240.492188 158.917969 240.492188 C 158.128906 240.492188 157.34375 240.492188 156.554688 240.496094 C 155.449219 240.5 154.34375 240.5 153.242188 240.496094 C 152.917969 240.5 152.59375 240.5 152.261719 240.503906 C 150.433594 240.492188 148.914062 240.335938 147.199219 239.699219 C 146.332031 238.945312 146.332031 238.945312 145.777344 237.921875 C 145.632812 236.8125 145.566406 236.132812 145.777344 235.078125 C 146.535156 233.664062 147.269531 232.355469 148.992188 232.144531 " fill-opacity="1" fill-rule="nonzero"/><path fill="#69e9bd" d="M 142.347656 219.175781 C 143.867188 219.082031 145.367188 219.082031 146.894531 219.117188 C 147.453125 219.117188 148.015625 219.121094 148.574219 219.121094 C 149.75 219.125 150.917969 219.136719 152.09375 219.160156 C 153.59375 219.1875 155.097656 219.191406 156.601562 219.195312 C 157.757812 219.199219 158.914062 219.210938 160.070312 219.21875 C 160.625 219.226562 161.183594 219.230469 161.734375 219.230469 C 162.507812 219.238281 163.28125 219.25 164.050781 219.265625 L 165.382812 219.285156 L 166.414062 219.433594 L 167.125 220.5 C 167.183594 221.46875 167.207031 222.398438 167.191406 223.363281 L 167.191406 224.15625 C 167.175781 226.089844 167.175781 226.089844 166.769531 226.898438 C 165.679688 227.121094 165.679688 227.121094 164.632812 227.253906 L 164.632812 227.609375 C 161.609375 227.652344 158.582031 227.683594 155.558594 227.703125 C 154.15625 227.710938 152.75 227.722656 151.34375 227.742188 C 149.988281 227.765625 148.628906 227.773438 147.273438 227.777344 C 146.757812 227.78125 146.242188 227.789062 145.722656 227.796875 C 141.6875 227.871094 141.6875 227.871094 140.355469 227.230469 C 139.601562 226.617188 139.089844 225.988281 138.65625 225.121094 C 138.507812 224.023438 138.449219 223.339844 138.65625 222.277344 C 139.082031 221.378906 139.570312 220.761719 140.246094 220.035156 C 141.148438 219.433594 141.148438 219.433594 142.347656 219.175781 " fill-opacity="1" fill-rule="nonzero"/><path fill="#a1efd5" d="M 175.308594 206.632812 C 178.683594 206.625 182.058594 206.617188 185.433594 206.613281 C 187 206.609375 188.566406 206.605469 190.132812 206.605469 C 191.640625 206.601562 193.15625 206.597656 194.664062 206.597656 C 195.242188 206.597656 195.820312 206.59375 196.398438 206.59375 C 197.207031 206.589844 198.011719 206.589844 198.816406 206.589844 L 200.210938 206.589844 C 201.285156 206.632812 201.285156 206.632812 201.996094 206.988281 L 201.996094 207.699219 L 203.0625 208.054688 C 203.484375 208.609375 203.484375 208.609375 203.773438 209.476562 C 203.875 210.523438 203.9375 211.304688 203.773438 212.320312 C 203.175781 213.34375 203.175781 213.34375 202.351562 214.097656 C 200.734375 214.964844 199.214844 214.90625 197.429688 214.890625 L 196.484375 214.890625 C 195.453125 214.890625 194.421875 214.886719 193.394531 214.878906 L 191.246094 214.875 C 189.367188 214.871094 187.484375 214.867188 185.605469 214.859375 C 183.683594 214.851562 181.761719 214.847656 179.84375 214.84375 C 176.078125 214.835938 172.316406 214.824219 168.550781 214.808594 L 168.191406 214.097656 L 175.664062 214.097656 L 176.019531 211.253906 C 176.441406 210.121094 176.441406 210.121094 176.929688 209.121094 L 177.421875 208.097656 L 177.800781 207.34375 L 175.664062 207.34375 Z M 252.878906 344.59375 C 253.839844 344.570312 254.789062 344.5625 255.75 344.574219 L 256.566406 344.574219 C 257.234375 344.582031 257.902344 344.589844 258.570312 344.59375 C 258.914062 345.621094 258.972656 346.253906 258.96875 347.316406 L 258.96875 348.332031 L 258.960938 349.421875 L 258.960938 350.539062 C 258.957031 351.722656 258.957031 352.902344 258.949219 354.085938 C 258.949219 354.882812 258.945312 355.683594 258.945312 356.484375 C 258.941406 358.449219 258.933594 360.410156 258.925781 362.375 L 271.382812 362.730469 C 272.039062 364.042969 272.1875 364.445312 272.160156 365.816406 L 272.152344 366.667969 L 272.09375 367.351562 L 271.738281 367.707031 C 271.148438 367.742188 270.558594 367.757812 269.972656 367.753906 L 268.832031 367.757812 L 267.589844 367.753906 L 266.324219 367.757812 C 265.441406 367.757812 264.558594 367.753906 263.671875 367.753906 C 262.3125 367.75 260.957031 367.753906 259.59375 367.757812 C 258.738281 367.757812 257.882812 367.757812 257.027344 367.753906 L 255.785156 367.757812 L 254.644531 367.753906 L 253.636719 367.753906 L 252.878906 367.707031 L 252.523438 367.351562 C 252.488281 366.65625 252.476562 365.957031 252.476562 365.261719 L 252.472656 363.90625 L 252.472656 362.429688 C 252.472656 361.925781 252.472656 361.425781 252.472656 360.925781 C 252.472656 359.875 252.472656 358.824219 252.476562 357.773438 C 252.476562 356.425781 252.476562 355.074219 252.472656 353.722656 C 252.472656 352.691406 252.472656 351.65625 252.472656 350.617188 C 252.472656 350.121094 252.472656 349.621094 252.472656 349.125 C 252.472656 348.429688 252.472656 347.734375 252.476562 347.042969 L 252.476562 345.84375 L 252.523438 344.949219 Z M 240.421875 123.074219 C 241.132812 124.140625 241.132812 124.140625 241.25 125.433594 C 241.265625 125.972656 241.277344 126.507812 241.285156 127.042969 L 241.304688 127.898438 C 241.324219 128.800781 241.339844 129.703125 241.359375 130.605469 L 241.398438 132.441406 C 241.433594 133.941406 241.464844 135.4375 241.492188 136.9375 L 241.847656 136.226562 L 242.558594 136.226562 L 242.558594 135.515625 L 243.269531 135.160156 L 243.628906 134.09375 L 244.339844 134.09375 L 244.339844 133.027344 L 245.050781 133.027344 L 245.050781 132.316406 L 246.476562 132.316406 L 246.476562 134.449219 L 247.1875 133.027344 L 247.542969 135.871094 L 247.898438 134.804688 L 248.964844 134.804688 C 248.757812 142.148438 247.804688 149.535156 245.40625 156.496094 C 244.128906 155.761719 242.988281 154.957031 241.847656 154.027344 L 240.957031 153.308594 L 240.066406 152.582031 C 239.476562 152.109375 238.882812 151.632812 238.289062 151.164062 L 238.503906 150.359375 C 240.828125 141.375 240.554688 132.277344 240.421875 123.074219 M 162.496094 232.234375 C 165.628906 232.214844 168.757812 232.207031 171.886719 232.195312 C 173.34375 232.191406 174.796875 232.1875 176.25 232.179688 C 177.652344 232.171875 179.054688 232.167969 180.457031 232.167969 C 180.992188 232.164062 181.527344 232.164062 182.0625 232.15625 C 182.8125 232.152344 183.5625 232.152344 184.3125 232.152344 L 185.605469 232.148438 C 186.667969 232.230469 187.234375 232.371094 188.117188 232.945312 C 188.921875 233.699219 188.921875 233.699219 189.539062 234.722656 C 189.722656 235.703125 189.707031 236.582031 189.539062 237.566406 C 189.074219 238.589844 189.074219 238.589844 188.472656 239.34375 C 187.367188 240.078125 186.914062 240.242188 185.625 240.414062 C 184.5 240.464844 183.375 240.472656 182.25 240.472656 L 181.261719 240.472656 C 180.578125 240.476562 179.890625 240.476562 179.207031 240.476562 C 178.160156 240.476562 177.113281 240.484375 176.066406 240.492188 C 175.398438 240.492188 174.730469 240.492188 174.0625 240.492188 L 173.117188 240.5 C 171.550781 240.496094 170.328125 240.433594 168.90625 239.699219 L 169.261719 238.988281 C 169.332031 236.9375 169.15625 234.980469 168.90625 232.945312 L 162.851562 232.945312 Z M 235.796875 344.59375 C 236.800781 344.585938 237.800781 344.578125 238.800781 344.574219 L 239.667969 344.5625 C 240.394531 344.558594 241.121094 344.574219 241.847656 344.59375 L 242.203125 344.949219 C 242.238281 345.644531 242.25 346.34375 242.25 347.042969 L 242.253906 348.398438 L 242.25 349.871094 C 242.25 350.371094 242.25 350.875 242.253906 351.375 C 242.253906 352.429688 242.253906 353.476562 242.25 354.527344 C 242.25 355.878906 242.25 357.230469 242.25 358.582031 C 242.253906 359.613281 242.253906 360.648438 242.25 361.683594 C 242.25 362.179688 242.253906 362.675781 242.253906 363.175781 C 242.253906 363.871094 242.253906 364.5625 242.25 365.257812 L 242.25 366.460938 L 242.203125 367.351562 L 241.847656 367.707031 C 240.894531 367.742188 239.953125 367.757812 239 367.75 L 238.191406 367.757812 C 237.515625 367.75 236.832031 367.734375 236.152344 367.707031 L 235.796875 367.351562 C 235.769531 366.640625 235.753906 365.929688 235.757812 365.222656 L 235.757812 363.839844 L 235.765625 362.339844 L 235.765625 360.808594 C 235.769531 359.464844 235.769531 358.121094 235.773438 356.777344 C 235.777344 355.40625 235.777344 354.035156 235.78125 352.667969 C 235.785156 349.976562 235.792969 347.285156 235.796875 344.59375 " fill-opacity="1" fill-rule="nonzero"/><path fill="#a1efd5" d="M 247.1875 118.449219 L 247.898438 118.449219 L 248.253906 122.363281 L 247.542969 122.363281 C 247.113281 121.503906 247.152344 120.957031 247.164062 120.003906 L 247.171875 119.125 Z M 247.1875 118.449219 " fill-opacity="1" fill-rule="nonzero"/></svg>