<svg xmlns="http://www.w3.org/2000/svg" xmlns:xlink="http://www.w3.org/1999/xlink" width="1032" zoomAndPan="magnify" viewBox="0 0 774 611.999999" height="816" preserveAspectRatio="xMidYMid meet" version="1.0"><defs><clipPath id="57b822320e"><path d="M 0 0.539062 L 774 0.539062 L 774 611.789062 L 0 611.789062 Z M 0 0.539062 " clip-rule="nonzero"/></clipPath></defs><g clip-path="url(#57b822320e)"><path fill="#031611" d="M 0.0078125 0.539062 L 773.992188 0.539062 L 773.992188 611.789062 L 0.0078125 611.789062 Z M 0.0078125 0.539062 " fill-opacity="1" fill-rule="nonzero"/></g><path fill="#fefefe" d="M 365.203125 97.144531 C 366.304688 97.148438 367.402344 97.144531 368.5 97.140625 C 375.648438 97.132812 382.445312 97.890625 389.390625 99.566406 L 391.050781 99.945312 C 394.03125 100.652344 396.71875 101.515625 399.46875 102.84375 C 400.308594 103.164062 401.152344 103.480469 401.996094 103.785156 C 408.011719 106.078125 413.730469 109 419.25 112.300781 L 419.25 113.160156 L 420.195312 113.511719 C 421.386719 114.015625 422.394531 114.597656 423.46875 115.3125 L 424.5 115.984375 L 425.269531 116.601562 L 425.269531 117.460938 L 426.988281 117.890625 L 426.988281 118.75 L 427.6875 119.050781 C 429.015625 119.777344 430.136719 120.707031 431.289062 121.679688 L 431.96875 122.234375 C 433.363281 123.394531 434.488281 124.617188 435.589844 126.058594 C 436.542969 127.039062 437.519531 127.996094 438.519531 128.933594 L 439.027344 129.496094 L 439.027344 130.355469 L 439.890625 130.355469 C 440.644531 131.21875 441.371094 132.105469 442.066406 133.015625 L 442.707031 133.84375 C 448.335938 141.1875 452.9375 148.964844 456.660156 157.4375 L 457.070312 158.371094 C 459.578125 164.167969 461.164062 170.226562 462.679688 176.351562 L 463.042969 177.8125 C 463.660156 180.375 464.132812 182.792969 464.238281 185.429688 C 464.265625 186.011719 464.292969 186.597656 464.320312 187.179688 L 464.398438 188.816406 C 464.554688 190.878906 464.734375 192.925781 465.050781 194.972656 C 466.351562 204.835938 464.757812 216.214844 461.738281 225.65625 C 461.324219 227.019531 461.324219 227.019531 461.46875 228.242188 C 461.863281 229.347656 462.300781 229.878906 463.136719 230.699219 C 467.890625 235.875 470.15625 242.707031 471.707031 249.425781 C 471.957031 250.722656 472.085938 251.972656 472.136719 253.292969 L 472.207031 254.625 C 472.386719 261.308594 470.988281 268.382812 467.835938 274.324219 C 465.929688 277.714844 463.695312 280.605469 460.957031 283.382812 L 460.257812 284.175781 C 456.238281 288.597656 450.628906 291.136719 445.058594 292.996094 C 439.21875 294.835938 432.160156 294.679688 426.171875 293.597656 C 422.699219 292.742188 419.410156 291.472656 416.238281 289.832031 L 416.238281 288.972656 L 414.949219 288.972656 L 414.949219 288.109375 L 413.953125 287.734375 C 412.800781 287.25 412.800781 287.25 411.507812 286.390625 L 411.507812 285.53125 L 410.773438 285.226562 C 407.5 283.378906 405.265625 279.695312 403.285156 276.585938 C 401.753906 274.195312 400.324219 272.269531 397.75 270.917969 C 395.949219 270.074219 394.308594 269.949219 392.347656 269.902344 C 390.21875 270.21875 388.507812 271.121094 386.828125 272.417969 C 386.320312 272.820312 385.8125 273.226562 385.308594 273.628906 C 381.019531 276.902344 376.308594 278.703125 370.941406 279.410156 C 366.875 279.78125 362.507812 279.640625 358.660156 278.179688 C 357.617188 277.667969 356.601562 277.109375 355.609375 276.503906 L 354.773438 276.011719 C 354.050781 275.566406 354.050781 275.566406 353.03125 274.785156 L 353.03125 273.925781 L 352.277344 273.605469 C 350.105469 272.394531 348.503906 270.226562 347.214844 268.136719 C 346.660156 267.074219 346.179688 266.007812 345.722656 264.898438 L 345.304688 263.960938 C 344.378906 261.492188 344.3125 259.070312 344.296875 256.464844 L 344.289062 255.421875 C 344.335938 251.652344 345.332031 248.574219 347.042969 245.21875 C 347.957031 243.691406 349.003906 242.363281 350.128906 240.988281 C 351.414062 239.402344 352.445312 237.992188 352.894531 235.964844 C 353.238281 233.003906 352.621094 230.316406 351.742188 227.503906 L 350.878906 227.503906 L 350.136719 226.535156 C 349.027344 225.1875 347.949219 224.507812 346.445312 223.632812 C 343.476562 221.867188 340.804688 220.144531 338.410156 217.617188 L 337.632812 216.890625 C 337.464844 216.703125 337.292969 216.515625 337.121094 216.324219 L 337.121094 215.464844 L 336.261719 215.464844 C 332.089844 210.675781 329.3125 204.609375 328.027344 198.433594 C 326.90625 192.0625 327.210938 185.773438 329.402344 179.667969 C 332.03125 173.027344 336.207031 167.574219 341.683594 163.027344 C 347.015625 158.800781 352.808594 156.113281 359.480469 154.855469 L 360.742188 154.609375 C 367.300781 153.707031 374.515625 154.445312 380.664062 156.914062 C 387.402344 159.90625 393.542969 163.605469 397.992188 169.648438 C 401.59375 174.738281 404.460938 180.371094 405.058594 186.667969 C 405.550781 194.277344 405.101562 200.933594 401.753906 207.863281 C 400.210938 210.863281 398.332031 213.417969 396.03125 215.894531 L 394.960938 217.085938 C 392.78125 219.394531 390.609375 221.160156 387.941406 222.855469 C 384.957031 224.75 384.957031 224.75 382.679688 227.417969 C 381.699219 229.675781 381.296875 232.03125 381.480469 234.488281 C 381.640625 235.394531 381.640625 235.394531 382.269531 236.527344 C 382.984375 236.816406 383.703125 237.105469 384.421875 237.386719 C 385.089844 237.945312 385.742188 238.519531 386.382812 239.109375 C 388 240.433594 389.265625 241.132812 391.328125 241.527344 C 393.601562 241.769531 395.613281 241.671875 397.75 240.828125 C 398.664062 240.308594 399.476562 239.730469 400.328125 239.109375 L 401.191406 239.109375 L 401.5625 238.359375 L 402.050781 237.386719 L 402.46875 236.539062 C 405.261719 231.1875 409.558594 226.617188 414.519531 223.203125 L 415.332031 222.792969 C 416.253906 222.289062 416.835938 221.847656 417.53125 221.054688 C 421.429688 212.691406 422.511719 202.40625 421.734375 193.300781 C 420.621094 183.238281 417.800781 173.523438 411.941406 165.171875 C 411.617188 164.691406 411.296875 164.210938 410.976562 163.730469 C 405.460938 155.585938 397.855469 149.644531 389.070312 145.292969 C 384.566406 143.320312 379.882812 141.957031 375.023438 141.207031 C 370.160156 140.457031 365.285156 140.347656 360.394531 140.871094 C 351.195312 142.054688 342.503906 145.554688 335.105469 151.144531 C 331.398438 154.042969 328.136719 157.3125 325.0625 160.867188 L 324.222656 161.734375 L 323.359375 161.734375 L 323.09375 162.78125 C 322.589844 164.082031 322.128906 164.914062 321.34375 166.03125 C 319.570312 168.605469 318.246094 171.382812 316.910156 174.199219 L 316.316406 175.371094 C 312.269531 183.984375 311.734375 194.496094 312.179688 203.859375 C 312.414062 206.339844 312.914062 208.746094 313.472656 211.167969 L 313.835938 212.886719 C 314.90625 217.746094 316.535156 222.652344 319.140625 226.917969 C 319.921875 228.367188 320.164062 229.183594 320.164062 230.808594 C 320.109375 232.03125 320.109375 232.03125 319.921875 233.089844 C 319.0625 234.21875 319.0625 234.21875 317.769531 234.808594 C 316.160156 235.238281 314.875 235.382812 313.25 234.957031 C 312.179688 234.378906 312.179688 234.378906 311.339844 233.375 C 308.023438 227.941406 305.710938 222.09375 304.066406 215.949219 L 303.816406 215.023438 C 302.453125 209.582031 302.128906 204.171875 302.15625 198.59375 L 302.160156 197.589844 C 302.183594 192.699219 302.347656 187.980469 303.582031 183.226562 L 303.855469 182.144531 C 306.898438 170.28125 312.011719 159.625 320.597656 150.765625 C 321.207031 150.132812 321.804688 149.488281 322.402344 148.839844 C 327.898438 142.992188 334.648438 138.945312 341.851562 135.511719 L 342.6875 135.113281 C 352.71875 130.4375 364.308594 129.535156 375.21875 130.449219 C 377.042969 130.6875 378.789062 131.121094 380.550781 131.644531 L 381.363281 131.875 C 385.765625 133.128906 390.042969 134.722656 394.308594 136.375 L 394.308594 137.234375 L 395.585938 137.519531 C 397.628906 138.101562 399.253906 139.222656 401 140.402344 L 401.953125 141.03125 C 402.5625 141.4375 403.171875 141.84375 403.78125 142.253906 C 404.324219 142.617188 404.875 142.976562 405.429688 143.324219 C 406.039062 143.710938 406.625 144.121094 407.210938 144.539062 L 407.210938 145.398438 L 407.984375 145.753906 C 413.722656 148.824219 418.109375 155.9375 421.5 161.285156 C 427.75 171.425781 431.507812 183.183594 431.863281 195.117188 C 431.875 196.238281 431.882812 197.363281 431.878906 198.488281 L 431.882812 199.378906 C 431.878906 205.464844 431.046875 211.285156 429.570312 217.1875 L 436.449219 216.753906 C 439.3125 202.050781 439.207031 187.210938 434.324219 172.902344 C 431.976562 166.410156 429.003906 159.960938 424.839844 154.425781 L 423.851562 153.074219 C 418.742188 146.171875 412.429688 138.980469 404.628906 135.082031 L 404.628906 134.222656 L 403.875 134.066406 C 402.878906 133.785156 402.101562 133.40625 401.195312 132.902344 L 400.203125 132.359375 L 399.148438 131.78125 C 395.472656 129.804688 391.808594 128.246094 387.859375 126.917969 L 386.492188 126.425781 C 376.824219 123.140625 364.980469 122.703125 354.9375 124.527344 C 353.871094 124.746094 352.804688 124.972656 351.742188 125.195312 C 350.59375 125.363281 349.449219 125.496094 348.300781 125.628906 L 348.300781 126.488281 L 346.742188 126.894531 C 343.257812 127.828125 339.953125 128.78125 336.691406 130.355469 L 335.832031 130.355469 L 335.832031 131.214844 L 334.460938 131.859375 C 331.160156 133.511719 327.976562 135.480469 325 137.664062 L 323.792969 138.523438 L 322.929688 138.523438 L 322.070312 140.242188 L 321.210938 140.242188 L 321.210938 141.101562 L 319.921875 141.101562 L 319.625 141.855469 C 318.914062 143.070312 318.015625 143.667969 316.910156 144.539062 C 316.515625 145 316.132812 145.464844 315.753906 145.9375 L 314.761719 147.121094 L 313.902344 147.121094 L 313.578125 148.085938 C 312.988281 149.378906 312.324219 149.992188 311.320312 150.988281 C 306.136719 157.765625 302.179688 165.078125 299.601562 173.207031 C 299.375 173.90625 299.136719 174.597656 298.882812 175.285156 C 295.140625 186.082031 294.773438 198.222656 296.273438 209.449219 L 296.40625 210.488281 C 297.019531 215.089844 298.128906 219.273438 299.710938 223.632812 C 299.910156 224.257812 300.109375 224.878906 300.308594 225.503906 C 301 227.585938 301.882812 229.554688 302.828125 231.53125 L 303.347656 232.613281 C 304.898438 235.816406 306.640625 238.789062 308.816406 241.613281 C 311.507812 245.117188 311.507812 245.117188 311.832031 247.007812 C 311.75 248.566406 311.75 248.566406 311.269531 249.773438 C 310.320312 250.878906 309.65625 251.433594 308.3125 252.003906 C 307.117188 252.203125 306.050781 252.289062 304.871094 252.003906 C 300.742188 249.1875 298.140625 244.199219 295.832031 239.886719 C 295.421875 239.136719 295.007812 238.390625 294.582031 237.652344 C 289.882812 229.117188 287.0625 219.082031 285.953125 209.449219 L 285.796875 208.121094 C 284.230469 193.828125 286.09375 179.960938 291.113281 166.464844 L 291.464844 165.5 C 294.292969 157.960938 298.652344 150.539062 304.011719 144.539062 C 304.484375 143.917969 304.949219 143.292969 305.410156 142.660156 C 306.421875 141.296875 307.507812 140.128906 308.742188 138.953125 L 309.523438 138.128906 C 312.320312 135.210938 315.410156 132.777344 318.632812 130.355469 L 319.378906 129.789062 C 327.199219 123.898438 335.929688 119.503906 345.289062 116.625 L 346.488281 116.257812 C 351.601562 114.761719 356.761719 114.234375 362.058594 113.914062 L 363.003906 113.855469 C 367.769531 113.570312 372.375 113.597656 377.101562 114.320312 C 377.921875 114.445312 378.746094 114.535156 379.570312 114.628906 C 383.339844 115.0625 386.855469 116.066406 390.464844 117.199219 C 391.738281 117.59375 393.023438 117.957031 394.308594 118.320312 L 394.308594 119.179688 L 395.246094 119.34375 C 401.746094 120.769531 408.433594 125.082031 413.660156 129.066406 L 414.640625 129.8125 C 415.285156 130.308594 415.925781 130.808594 416.5625 131.3125 C 417.246094 131.851562 417.9375 132.378906 418.632812 132.902344 L 419.707031 133.714844 L 420.6875 134.449219 L 421.398438 135.082031 L 421.398438 135.945312 L 422.257812 135.945312 L 422.257812 136.804688 L 423.011719 137.125 C 428.632812 140.257812 433.296875 148.769531 436.523438 154.140625 C 441.929688 163.34375 446.683594 174.46875 447.441406 185.242188 C 447.523438 186.398438 447.625 187.507812 447.839844 188.644531 C 448.984375 196.242188 449.230469 205.195312 447.433594 212.722656 C 446.9375 214.898438 446.664062 217.125 446.339844 219.335938 L 447.203125 219.585938 C 450.976562 220.699219 450.976562 220.699219 452.789062 221.484375 L 452.964844 220 C 453.246094 217.757812 453.636719 215.535156 454.035156 213.304688 C 455.683594 203.742188 455.355469 193.679688 454.078125 184.085938 L 453.9375 183.011719 C 451.980469 168.980469 446.019531 155.515625 437.765625 144.085938 L 437.210938 143.3125 C 432.953125 137.445312 428.40625 132.246094 422.6875 127.777344 C 421.457031 126.753906 420.226562 125.730469 418.996094 124.703125 C 418.097656 124.011719 417.273438 123.503906 416.238281 123.046875 L 416.238281 122.1875 L 415.347656 121.871094 C 413.867188 121.234375 412.546875 120.40625 411.1875 119.554688 C 402.160156 114.046875 392.089844 110.472656 381.757812 108.351562 L 380.707031 108.132812 C 372.242188 106.46875 363.25 106.648438 354.75 108.003906 L 353.65625 108.164062 C 348.199219 108.972656 343.191406 110.246094 338.085938 112.335938 C 337.136719 112.722656 336.183594 113.101562 335.230469 113.472656 C 329.59375 115.703125 323.976562 118.171875 319.0625 121.757812 L 317.882812 122.605469 C 317.066406 123.199219 316.253906 123.792969 315.441406 124.386719 C 314.523438 125.054688 313.597656 125.710938 312.664062 126.351562 C 311.359375 127.320312 310.292969 128.320312 309.171875 129.496094 C 308.671875 130 308.167969 130.5 307.667969 131 L 306.882812 131.78125 C 304.011719 134.652344 304.011719 134.652344 303.230469 135.359375 C 295.601562 142.492188 289.691406 152.484375 285.953125 162.164062 L 285.320312 163.625 C 283.230469 168.550781 281.835938 173.636719 280.65625 178.847656 L 280.324219 180.289062 C 279.070312 186.050781 278.980469 191.789062 278.992188 197.65625 L 278.992188 198.691406 C 279.039062 213.863281 282.0625 228.273438 289.390625 241.6875 L 289.820312 242.484375 C 292.679688 247.773438 296.050781 252.339844 300.140625 256.730469 L 301.277344 257.984375 C 303.480469 260.417969 305.753906 262.78125 308.097656 265.078125 C 314.714844 271.582031 314.714844 271.582031 316.050781 274.355469 C 316.398438 275.882812 316.417969 277.132812 316.050781 278.65625 C 315.578125 279.71875 315.109375 280.339844 314.332031 281.234375 C 313.246094 281.777344 312.476562 281.707031 311.269531 281.691406 L 310.082031 281.679688 L 309.171875 281.664062 L 309.171875 280.804688 L 308.398438 280.480469 C 307.300781 279.859375 306.816406 279.242188 306.082031 278.226562 C 303.402344 274.636719 300.300781 271.46875 297.109375 268.34375 C 291.378906 262.738281 286.667969 257.089844 282.554688 250.210938 C 282.132812 249.511719 281.703125 248.820312 281.265625 248.128906 C 279.105469 244.625 277.554688 240.902344 276.03125 237.089844 C 275.675781 236.214844 275.316406 235.347656 274.945312 234.484375 C 268.40625 218.382812 267.445312 199.929688 269.648438 182.863281 C 270.085938 179.777344 270.699219 176.769531 271.527344 173.765625 C 271.773438 172.875 271.992188 171.976562 272.214844 171.082031 C 274.179688 163.277344 277.476562 155.941406 281.222656 148.839844 L 281.859375 147.59375 C 285.347656 140.929688 289.917969 135.132812 294.976562 129.597656 C 295.710938 128.777344 296.421875 127.9375 297.105469 127.078125 L 297.992188 126.058594 L 298.851562 126.058594 L 299.171875 125.304688 C 301.566406 121.015625 307.453125 117.765625 311.320312 114.878906 L 312.476562 114.007812 C 318.960938 109.253906 326.585938 105.585938 334.109375 102.84375 C 334.660156 102.636719 335.207031 102.425781 335.757812 102.214844 C 339.179688 100.925781 342.613281 99.90625 346.175781 99.082031 L 347.285156 98.824219 C 353.25 97.511719 359.117188 97.113281 365.203125 97.144531 " fill-opacity="1" fill-rule="nonzero"/><path fill="#69e9bd" d="M 365.203125 97.144531 C 366.304688 97.148438 367.402344 97.144531 368.5 97.140625 C 375.648438 97.132812 382.445312 97.890625 389.390625 99.566406 L 391.050781 99.945312 C 394.03125 100.652344 396.71875 101.515625 399.46875 102.84375 C 400.308594 103.164062 401.152344 103.480469 401.996094 103.785156 C 408.011719 106.078125 413.730469 109 419.25 112.300781 L 419.25 113.160156 L 420.195312 113.511719 C 421.386719 114.015625 422.394531 114.597656 423.46875 115.3125 L 424.5 115.984375 L 425.269531 116.601562 L 425.269531 117.460938 L 426.988281 117.890625 L 426.988281 118.75 L 427.6875 119.050781 C 429.015625 119.777344 430.136719 120.707031 431.289062 121.679688 L 431.96875 122.234375 C 433.363281 123.394531 434.488281 124.617188 435.589844 126.058594 C 436.542969 127.039062 437.519531 127.996094 438.519531 128.933594 L 439.027344 129.496094 L 439.027344 130.355469 L 439.890625 130.355469 C 440.644531 131.21875 441.371094 132.105469 442.066406 133.015625 L 442.707031 133.84375 C 448.335938 141.1875 452.9375 148.964844 456.660156 157.4375 L 457.070312 158.371094 C 459.578125 164.167969 461.164062 170.226562 462.679688 176.351562 L 463.042969 177.8125 C 463.660156 180.375 464.132812 182.792969 464.238281 185.429688 C 464.265625 186.011719 464.292969 186.597656 464.320312 187.179688 L 464.398438 188.816406 C 464.554688 190.878906 464.734375 192.925781 465.050781 194.972656 C 466.460938 205.660156 464.503906 217.808594 460.957031 227.933594 C 459.414062 227.046875 458.039062 226.074219 456.660156 224.949219 L 455.582031 224.078125 L 454.507812 223.203125 C 453.792969 222.628906 453.074219 222.054688 452.359375 221.484375 L 452.617188 220.53125 C 455.695312 208.71875 455.679688 196.132812 454.078125 184.085938 L 453.9375 183.011719 C 451.980469 168.980469 446.019531 155.515625 437.765625 144.085938 L 437.210938 143.3125 C 432.953125 137.445312 428.40625 132.246094 422.6875 127.777344 C 421.457031 126.753906 420.226562 125.730469 418.996094 124.703125 C 418.097656 124.011719 417.269531 123.503906 416.238281 123.046875 L 416.238281 122.1875 L 415.347656 121.871094 C 413.867188 121.234375 412.546875 120.40625 411.1875 119.554688 C 402.160156 114.046875 392.089844 110.472656 381.757812 108.351562 L 380.707031 108.132812 C 372.242188 106.46875 363.246094 106.648438 354.75 108.003906 L 353.65625 108.164062 C 348.199219 108.972656 343.191406 110.246094 338.085938 112.335938 C 337.136719 112.722656 336.183594 113.101562 335.230469 113.472656 C 329.59375 115.703125 323.976562 118.171875 319.0625 121.757812 L 317.882812 122.605469 C 317.066406 123.199219 316.253906 123.792969 315.441406 124.386719 C 314.523438 125.054688 313.597656 125.710938 312.664062 126.351562 C 311.359375 127.320312 310.292969 128.320312 309.171875 129.496094 C 308.671875 130 308.167969 130.5 307.667969 131 L 306.882812 131.78125 C 304.011719 134.652344 304.011719 134.652344 303.230469 135.359375 C 295.601562 142.492188 289.691406 152.484375 285.953125 162.164062 L 285.320312 163.625 C 283.230469 168.550781 281.835938 173.636719 280.65625 178.847656 L 280.324219 180.289062 C 279.070312 186.050781 278.980469 191.789062 278.992188 197.65625 L 278.992188 198.691406 C 279.039062 213.863281 282.0625 228.273438 289.390625 241.6875 L 289.820312 242.484375 C 292.679688 247.773438 296.050781 252.339844 300.140625 256.730469 L 301.277344 257.984375 C 303.480469 260.417969 305.753906 262.78125 308.097656 265.078125 C 314.714844 271.582031 314.714844 271.582031 316.050781 274.355469 C 316.398438 275.882812 316.417969 277.132812 316.050781 278.65625 C 315.578125 279.71875 315.109375 280.339844 314.332031 281.234375 C 313.246094 281.777344 312.476562 281.707031 311.269531 281.691406 L 310.082031 281.679688 L 309.171875 281.664062 L 309.171875 280.804688 L 308.398438 280.480469 C 307.300781 279.859375 306.816406 279.242188 306.082031 278.226562 C 303.402344 274.636719 300.300781 271.46875 297.109375 268.34375 C 291.378906 262.738281 286.667969 257.089844 282.554688 250.210938 C 282.132812 249.511719 281.703125 248.820312 281.265625 248.128906 C 279.105469 244.625 277.554688 240.902344 276.03125 237.089844 C 275.675781 236.214844 275.316406 235.347656 274.945312 234.484375 C 268.40625 218.382812 267.445312 199.929688 269.648438 182.863281 C 270.085938 179.777344 270.699219 176.769531 271.527344 173.765625 C 271.773438 172.875 271.992188 171.976562 272.214844 171.082031 C 274.179688 163.277344 277.476562 155.941406 281.222656 148.839844 L 281.859375 147.59375 C 285.347656 140.929688 289.917969 135.132812 294.976562 129.597656 C 295.710938 128.777344 296.421875 127.9375 297.105469 127.078125 L 297.992188 126.058594 L 298.851562 126.058594 L 299.171875 125.304688 C 301.566406 121.015625 307.453125 117.765625 311.320312 114.878906 L 312.476562 114.007812 C 318.960938 109.253906 326.585938 105.585938 334.109375 102.84375 C 334.660156 102.636719 335.207031 102.425781 335.757812 102.214844 C 339.179688 100.925781 342.613281 99.90625 346.175781 99.082031 L 347.285156 98.824219 C 353.25 97.511719 359.117188 97.113281 365.203125 97.144531 " fill-opacity="1" fill-rule="nonzero"/><path fill="#69e9bd" d="M 374.960938 114.019531 L 376.042969 114.136719 C 381.324219 114.726562 386.25 115.828125 391.300781 117.460938 C 392.300781 117.753906 393.304688 118.039062 394.308594 118.320312 L 394.308594 119.179688 L 395.246094 119.34375 C 401.746094 120.769531 408.433594 125.082031 413.660156 129.066406 L 414.640625 129.8125 C 415.285156 130.308594 415.925781 130.808594 416.5625 131.3125 C 417.246094 131.851562 417.9375 132.378906 418.632812 132.902344 L 419.707031 133.714844 L 420.6875 134.449219 L 421.398438 135.082031 L 421.398438 135.945312 L 422.257812 135.945312 L 422.257812 136.804688 L 423.011719 137.125 C 428.632812 140.257812 433.296875 148.769531 436.523438 154.140625 C 441.929688 163.34375 446.683594 174.46875 447.441406 185.242188 C 447.523438 186.398438 447.625 187.507812 447.839844 188.644531 C 449.050781 196.675781 449.109375 205.820312 447.199219 213.746094 C 447.035156 214.625 446.871094 215.5 446.714844 216.378906 L 446.496094 217.59375 L 446.339844 218.476562 C 443.167969 218.152344 440.027344 217.6875 436.878906 217.1875 L 437.035156 215.839844 C 437.238281 214.101562 437.425781 212.363281 437.609375 210.625 C 437.695312 209.847656 437.785156 209.074219 437.878906 208.296875 C 439.457031 195.242188 437.953125 181.703125 433.007812 169.472656 C 430.75 164.1875 428.304688 159.035156 424.839844 154.425781 L 423.851562 153.074219 C 418.742188 146.171875 412.429688 138.980469 404.628906 135.082031 L 404.628906 134.222656 L 403.875 134.066406 C 402.878906 133.785156 402.101562 133.40625 401.195312 132.902344 L 400.203125 132.359375 L 399.148438 131.777344 C 395.472656 129.808594 391.808594 128.246094 387.859375 126.917969 L 386.492188 126.425781 C 376.824219 123.140625 364.980469 122.703125 354.9375 124.523438 C 353.871094 124.746094 352.804688 124.972656 351.742188 125.195312 C 350.59375 125.363281 349.449219 125.496094 348.300781 125.628906 L 348.300781 126.488281 L 346.742188 126.894531 C 343.257812 127.828125 339.953125 128.78125 336.691406 130.355469 L 335.832031 130.355469 L 335.832031 131.214844 L 334.460938 131.859375 C 331.160156 133.511719 327.976562 135.480469 325 137.664062 L 323.792969 138.523438 L 322.929688 138.523438 L 322.070312 140.242188 L 321.210938 140.242188 L 321.210938 141.101562 L 319.921875 141.101562 L 319.625 141.855469 C 318.914062 143.070312 318.015625 143.667969 316.910156 144.539062 C 316.515625 145 316.132812 145.464844 315.753906 145.9375 L 314.761719 147.121094 L 313.902344 147.121094 L 313.578125 148.085938 C 312.988281 149.378906 312.324219 149.992188 311.320312 150.988281 C 306.136719 157.765625 302.179688 165.078125 299.601562 173.207031 C 299.375 173.90625 299.136719 174.597656 298.882812 175.285156 C 295.140625 186.082031 294.773438 198.222656 296.273438 209.449219 L 296.40625 210.488281 C 297.019531 215.089844 298.128906 219.273438 299.710938 223.632812 C 299.910156 224.257812 300.109375 224.878906 300.308594 225.503906 C 301 227.585938 301.882812 229.554688 302.828125 231.53125 L 303.347656 232.613281 C 304.898438 235.816406 306.640625 238.789062 308.816406 241.613281 C 311.507812 245.117188 311.507812 245.117188 311.832031 247.007812 C 311.75 248.566406 311.75 248.566406 311.269531 249.773438 C 310.320312 250.878906 309.65625 251.433594 308.3125 252.003906 C 307.121094 252.203125 306.050781 252.289062 304.871094 252.003906 C 300.742188 249.1875 298.140625 244.199219 295.832031 239.886719 C 295.421875 239.136719 295.007812 238.390625 294.585938 237.652344 C 289.882812 229.117188 287.0625 219.082031 285.953125 209.449219 L 285.796875 208.121094 C 284.230469 193.828125 286.09375 179.960938 291.113281 166.464844 L 291.464844 165.5 C 294.292969 157.960938 298.652344 150.539062 304.011719 144.539062 C 304.484375 143.917969 304.949219 143.292969 305.410156 142.660156 C 306.421875 141.296875 307.507812 140.128906 308.742188 138.953125 L 309.523438 138.128906 C 312.320312 135.210938 315.410156 132.777344 318.632812 130.355469 L 319.378906 129.789062 C 327.199219 123.898438 335.929688 119.503906 345.289062 116.625 L 346.488281 116.257812 C 355.507812 113.617188 365.632812 112.976562 374.960938 114.019531 " fill-opacity="1" fill-rule="nonzero"/><path fill="#69e9bd" d="M 380.550781 131.644531 L 381.363281 131.875 C 385.765625 133.128906 390.042969 134.722656 394.308594 136.375 L 394.308594 137.234375 L 395.585938 137.519531 C 397.628906 138.101562 399.253906 139.222656 401 140.402344 L 401.953125 141.03125 C 402.5625 141.4375 403.171875 141.84375 403.78125 142.253906 C 404.324219 142.617188 404.875 142.976562 405.429688 143.324219 C 406.039062 143.710938 406.625 144.121094 407.210938 144.539062 L 407.210938 145.398438 L 407.984375 145.753906 C 413.722656 148.824219 418.109375 155.9375 421.5 161.285156 C 427.75 171.425781 431.507812 183.183594 431.863281 195.117188 C 431.875 196.238281 431.882812 197.363281 431.878906 198.488281 L 431.882812 199.378906 C 431.878906 204.855469 431.246094 210.128906 430 215.464844 L 429.804688 216.410156 L 429.570312 217.1875 C 428.296875 218.050781 426.890625 218.304688 425.402344 218.636719 C 423.328125 219.132812 421.484375 219.789062 419.570312 220.722656 C 418.820312 221.054688 418.820312 221.054688 417.960938 221.054688 C 418.242188 219.460938 418.664062 217.929688 419.125 216.378906 C 422.460938 205.023438 422.550781 194.199219 419.855469 182.691406 C 418.277344 176.382812 415.679688 170.5 411.941406 165.171875 C 411.617188 164.691406 411.296875 164.210938 410.976562 163.730469 C 405.460938 155.585938 397.855469 149.644531 389.070312 145.292969 C 384.566406 143.320312 379.882812 141.957031 375.023438 141.207031 C 370.160156 140.457031 365.285156 140.347656 360.394531 140.871094 C 351.195312 142.054688 342.503906 145.554688 335.105469 151.144531 C 331.398438 154.042969 328.136719 157.3125 325.0625 160.867188 L 324.222656 161.734375 L 323.359375 161.734375 L 323.09375 162.78125 C 322.589844 164.082031 322.128906 164.914062 321.347656 166.03125 C 319.570312 168.605469 318.246094 171.382812 316.910156 174.199219 L 316.316406 175.371094 C 312.269531 183.984375 311.734375 194.496094 312.179688 203.859375 C 312.414062 206.339844 312.914062 208.746094 313.472656 211.167969 L 313.835938 212.886719 C 314.90625 217.746094 316.535156 222.652344 319.140625 226.917969 C 319.921875 228.367188 320.164062 229.183594 320.164062 230.808594 C 320.109375 232.03125 320.109375 232.03125 319.921875 233.089844 C 319.0625 234.21875 319.0625 234.21875 317.769531 234.808594 C 316.160156 235.238281 314.875 235.382812 313.25 234.957031 C 312.179688 234.378906 312.179688 234.378906 311.339844 233.375 C 308.023438 227.941406 305.710938 222.09375 304.066406 215.949219 L 303.816406 215.023438 C 302.453125 209.582031 302.128906 204.171875 302.15625 198.59375 L 302.160156 197.589844 C 302.183594 192.699219 302.347656 187.980469 303.582031 183.226562 L 303.855469 182.144531 C 306.898438 170.28125 312.011719 159.625 320.597656 150.765625 C 321.207031 150.132812 321.808594 149.488281 322.402344 148.839844 C 327.898438 142.992188 334.648438 138.945312 341.851562 135.511719 L 342.6875 135.113281 C 353.6875 129.984375 368.828125 128.164062 380.550781 131.644531 " fill-opacity="1" fill-rule="nonzero"/><path fill="#fefefe" d="M 514.386719 233.667969 C 516.242188 234.261719 518.058594 234.941406 519.867188 235.667969 L 519.867188 236.527344 L 520.726562 236.769531 C 523.820312 238.25 526.464844 241.085938 528.46875 243.835938 C 530.980469 248.011719 531.96875 251.761719 532.070312 256.597656 C 532.058594 260.601562 531.34375 264.394531 529.480469 267.980469 C 528.761719 269.136719 527.996094 270.257812 527.175781 271.347656 L 526.625 272.121094 C 524.066406 275.472656 520.230469 277.457031 516.425781 279.085938 C 511.71875 280.632812 506.894531 280.675781 502.074219 279.71875 C 499.628906 279.167969 497.492188 278.230469 495.359375 276.933594 L 495.359375 276.074219 L 494.386719 275.738281 C 492.054688 274.703125 490.519531 272.71875 488.953125 270.757812 C 486.324219 267 484.964844 262.6875 484.417969 258.160156 C 484.273438 253.960938 485.136719 249.886719 486.878906 246.066406 C 489.109375 242.089844 492.121094 238.847656 495.921875 236.328125 C 501.597656 233.09375 508.011719 231.839844 514.386719 233.667969 M 468.699219 393.425781 C 469.671875 393.316406 469.671875 393.316406 470.898438 393.3125 L 472.292969 393.304688 L 473.804688 393.3125 L 475.359375 393.308594 C 476.449219 393.308594 477.539062 393.308594 478.632812 393.3125 C 480.289062 393.316406 481.949219 393.3125 483.605469 393.308594 C 484.664062 393.308594 485.726562 393.308594 486.785156 393.3125 L 488.277344 393.304688 C 491.9375 393.328125 495.511719 393.582031 498.851562 395.199219 L 499.824219 395.65625 L 500.519531 396.003906 L 500.519531 396.863281 L 501.304688 397.160156 C 502.238281 397.722656 502.238281 397.722656 502.859375 398.703125 L 503.394531 399.847656 L 503.9375 400.984375 C 505.40625 404.359375 505.085938 408.292969 504.816406 411.910156 C 504.332031 414.410156 503.421875 416.367188 501.835938 418.355469 C 500.792969 419.453125 499.746094 420.285156 498.367188 420.9375 L 497.507812 420.9375 C 499.289062 424.609375 501.238281 428.109375 503.402344 431.570312 L 504.121094 432.730469 L 504.773438 433.777344 C 505.246094 434.691406 505.246094 434.691406 505.246094 435.980469 C 501.582031 436.625 497.652344 437.226562 494.066406 435.980469 C 491.367188 433.578125 489.929688 430.140625 488.570312 426.855469 C 488.070312 425.640625 488.070312 425.640625 487.335938 424.488281 L 486.757812 423.515625 L 486.757812 422.65625 L 479.449219 422.65625 L 479.019531 435.980469 L 473.671875 436.007812 L 471.980469 436.019531 L 470.660156 436.023438 L 469.304688 436.03125 L 468.269531 435.980469 L 467.839844 435.550781 C 467.792969 434.277344 467.773438 433.003906 467.777344 431.726562 L 467.773438 430.511719 C 467.769531 429.179688 467.765625 427.84375 467.765625 426.511719 L 467.761719 423.746094 C 467.761719 421.808594 467.757812 419.871094 467.757812 417.933594 C 467.757812 415.449219 467.753906 412.960938 467.746094 410.472656 C 467.742188 408.570312 467.738281 406.664062 467.738281 404.757812 C 467.738281 403.839844 467.738281 402.921875 467.734375 402.003906 C 467.730469 400.722656 467.730469 399.445312 467.734375 398.164062 C 467.730469 397.78125 467.730469 397.398438 467.726562 397.003906 C 467.730469 396.097656 467.78125 395.191406 467.839844 394.285156 Z M 557.667969 392.859375 C 558.59375 392.859375 559.519531 392.851562 560.441406 392.839844 C 563.527344 392.824219 566.085938 392.921875 568.886719 394.285156 L 569.871094 394.667969 C 571.863281 395.566406 573.289062 396.710938 574.671875 398.410156 C 575.898438 400.316406 576.609375 402.386719 577.058594 404.601562 L 577.058594 408.039062 L 565.875 408.039062 L 564.585938 403.3125 C 562.957031 402.199219 561.820312 402.042969 559.867188 401.867188 C 559.28125 401.867188 558.695312 401.875 558.109375 401.886719 L 557.222656 401.882812 C 555.367188 401.902344 553.832031 402.175781 552.117188 402.882812 C 551.246094 403.542969 551.246094 403.542969 550.828125 404.601562 C 550.625 406.410156 550.800781 408.003906 551.257812 409.757812 L 552.21875 409.792969 C 555.769531 409.914062 559.316406 410.046875 562.867188 410.1875 L 564 410.230469 C 569.777344 410.453125 569.777344 410.453125 572.328125 411.910156 L 573.191406 412.335938 C 574.539062 413.054688 575.523438 413.734375 576.445312 414.964844 C 577.5 416.773438 578.21875 418.398438 578.347656 420.503906 L 578.410156 421.4375 C 578.53125 424.414062 578.007812 427.144531 577.054688 429.960938 C 576.042969 431.851562 574.980469 433.09375 573.1875 434.261719 C 567.152344 437.28125 560.433594 437.199219 553.835938 436.839844 C 550.285156 436.527344 546.96875 435.753906 543.984375 433.742188 C 542.105469 432.128906 540.972656 430.277344 540.066406 427.988281 C 539.433594 426.054688 539.007812 424.277344 539.21875 422.226562 L 539.648438 421.796875 C 540.445312 421.757812 541.242188 421.75 542.039062 421.753906 L 543.507812 421.757812 L 545.050781 421.769531 L 546.597656 421.773438 C 547.863281 421.78125 549.128906 421.785156 550.398438 421.796875 L 551.257812 426.09375 L 552.117188 426.09375 L 552.644531 426.730469 L 553.40625 427.382812 C 554.699219 427.5625 554.699219 427.5625 556.167969 427.507812 L 557.800781 427.496094 L 559.507812 427.464844 C 560.082031 427.457031 560.65625 427.453125 561.230469 427.445312 C 562.636719 427.429688 564.042969 427.410156 565.445312 427.382812 L 565.445312 426.523438 L 566.082031 425.945312 L 566.738281 425.234375 C 567 423.925781 566.960938 422.679688 566.738281 421.367188 C 565.773438 420.304688 565.089844 420.101562 563.726562 419.644531 C 562.707031 419.597656 561.683594 419.570312 560.664062 419.554688 L 558.800781 419.519531 C 557.828125 419.5 556.855469 419.484375 555.886719 419.472656 C 548.1875 419.375 548.1875 419.375 544.808594 417.925781 C 543.125 416.765625 541.808594 415.488281 540.5625 413.871094 C 539.222656 410.824219 538.933594 407.890625 539.21875 404.601562 C 539.605469 402.210938 540.242188 400.054688 541.582031 398.019531 C 543.242188 396.011719 545.421875 394.8125 547.816406 393.855469 C 551.019531 392.792969 554.332031 392.847656 557.667969 392.859375 M 192.390625 392.804688 C 193.257812 392.808594 194.125 392.792969 194.992188 392.78125 C 199.515625 392.785156 203.269531 393.59375 207.210938 395.84375 C 208.914062 397.085938 210.046875 398.453125 211.066406 400.296875 C 212.03125 402.816406 212.179688 405.359375 212.421875 408.039062 L 201.242188 408.039062 L 199.953125 403.742188 C 198.390625 402.429688 198.390625 402.429688 196.941406 402.023438 C 195.753906 401.957031 194.585938 401.921875 193.394531 401.914062 L 192.433594 401.886719 C 190.179688 401.871094 188.621094 402.246094 186.625 403.3125 C 185.902344 404.253906 185.902344 404.253906 185.761719 405.460938 C 185.886719 407.269531 186.042969 408.242188 187.054688 409.757812 C 188.261719 409.972656 188.261719 409.972656 189.683594 409.964844 L 191.308594 410.003906 L 193.019531 410.027344 C 205.097656 410.273438 205.097656 410.273438 208.554688 412.339844 C 210.054688 413.289062 211.152344 414.292969 212.128906 415.78125 C 213.515625 418.636719 213.574219 421.628906 213.449219 424.742188 C 213.277344 427.09375 212.710938 429.183594 211.5625 431.253906 C 209.910156 433.285156 208.089844 434.335938 205.703125 435.363281 C 201.910156 436.714844 198.011719 436.996094 194.015625 436.972656 L 192.648438 436.96875 C 188.34375 436.90625 183.894531 436.546875 180.0625 434.382812 C 177.96875 432.839844 176.433594 430.84375 175.253906 428.539062 C 174.582031 426.523438 174.582031 426.523438 174.582031 421.796875 L 185.332031 421.796875 L 187.054688 426.953125 L 188.34375 426.953125 L 188.34375 427.8125 C 190.171875 427.777344 192 427.730469 193.824219 427.679688 L 195.398438 427.648438 L 196.910156 427.601562 L 198.300781 427.570312 C 199.546875 427.46875 199.546875 427.46875 200.492188 426.726562 L 201.242188 426.09375 L 202.101562 426.09375 L 201.671875 420.503906 C 199.527344 419.8125 197.707031 419.535156 195.429688 419.511719 L 193.585938 419.480469 C 192.632812 419.46875 191.679688 419.457031 190.726562 419.449219 C 186.960938 419.410156 183.292969 419.359375 179.742188 417.925781 C 177.890625 416.8125 176.625 415.398438 175.472656 413.574219 C 174.425781 411.316406 174.382812 409.117188 174.367188 406.667969 L 174.359375 405.554688 C 174.40625 403.203125 174.765625 401.527344 175.875 399.441406 C 177.234375 397.464844 178.871094 395.714844 181.046875 394.628906 C 184.785156 393.113281 188.378906 392.777344 192.390625 392.804688 M 273.910156 393.425781 C 274.984375 393.382812 276.039062 393.367188 277.113281 393.371094 L 278.125 393.367188 C 279.238281 393.367188 280.351562 393.367188 281.464844 393.367188 L 283.773438 393.367188 C 285.386719 393.367188 287.003906 393.367188 288.617188 393.371094 C 290.691406 393.371094 292.769531 393.371094 294.84375 393.367188 C 296.433594 393.367188 298.023438 393.367188 299.613281 393.367188 C 300.378906 393.367188 301.144531 393.367188 301.910156 393.367188 C 302.976562 393.367188 304.042969 393.367188 305.113281 393.371094 L 306.078125 393.367188 C 306.824219 393.371094 307.566406 393.394531 308.3125 393.425781 L 308.742188 393.855469 C 308.785156 394.457031 308.796875 395.0625 308.796875 395.667969 L 308.800781 396.773438 L 308.796875 397.9375 L 308.800781 399.101562 L 308.796875 400.207031 L 308.796875 401.230469 L 308.742188 402.023438 L 308.3125 402.453125 C 307.664062 402.492188 307.015625 402.507812 306.371094 402.507812 L 305.117188 402.511719 L 303.75 402.507812 L 302.355469 402.511719 C 301.375 402.511719 300.398438 402.507812 299.417969 402.507812 C 297.925781 402.503906 296.429688 402.507812 294.9375 402.511719 C 293.988281 402.511719 293.039062 402.511719 292.085938 402.507812 L 290.734375 402.511719 L 289.460938 402.507812 L 288.347656 402.507812 C 287.109375 402.445312 285.882812 402.226562 284.660156 402.023438 L 284.660156 410.1875 L 288.503906 410.175781 C 289.726562 410.171875 290.949219 410.167969 292.171875 410.164062 C 293.023438 410.164062 293.875 410.160156 294.726562 410.15625 C 295.949219 410.152344 297.171875 410.148438 298.394531 410.148438 L 299.554688 410.140625 C 300.46875 410.140625 301.378906 410.164062 302.292969 410.1875 L 302.722656 410.617188 L 302.722656 419.214844 L 284.660156 419.214844 L 284.660156 427.382812 L 286.824219 427.375 C 289.464844 427.367188 292.105469 427.363281 294.742188 427.359375 C 295.886719 427.355469 297.03125 427.355469 298.175781 427.351562 C 299.816406 427.34375 301.457031 427.34375 303.097656 427.339844 L 304.65625 427.335938 L 306.089844 427.335938 L 307.363281 427.332031 L 308.3125 427.382812 L 308.742188 427.8125 C 308.777344 428.421875 308.789062 429.03125 308.785156 429.640625 L 308.777344 430.753906 L 308.769531 431.921875 L 308.761719 433.097656 C 308.757812 434.058594 308.75 435.019531 308.742188 435.980469 C 304.207031 435.988281 299.675781 435.996094 295.140625 436.003906 C 293.035156 436.003906 290.929688 436.007812 288.824219 436.011719 C 286.796875 436.015625 284.765625 436.019531 282.734375 436.019531 C 281.960938 436.023438 281.183594 436.023438 280.40625 436.027344 C 279.324219 436.027344 278.242188 436.03125 277.15625 436.03125 L 276.175781 436.035156 C 275.421875 436.03125 274.667969 436.007812 273.910156 435.980469 L 273.480469 435.550781 C 273.4375 434.257812 273.421875 432.972656 273.425781 431.679688 L 273.425781 430.449219 C 273.421875 429.101562 273.421875 427.75 273.425781 426.402344 L 273.421875 423.601562 C 273.421875 421.644531 273.425781 419.6875 273.425781 417.726562 C 273.429688 415.210938 273.425781 412.695312 273.425781 410.175781 C 273.421875 408.25 273.421875 406.320312 273.425781 404.394531 C 273.425781 403.464844 273.425781 402.539062 273.421875 401.609375 C 273.421875 400.3125 273.421875 399.019531 273.425781 397.722656 L 273.421875 396.550781 C 273.425781 395.652344 273.453125 394.753906 273.480469 393.855469 Z M 429.570312 393.425781 C 430.691406 393.277344 430.691406 393.277344 432.097656 393.300781 L 433.617188 393.3125 C 434.144531 393.324219 434.671875 393.332031 435.210938 393.34375 L 436.816406 393.363281 C 438.128906 393.378906 439.4375 393.398438 440.75 393.425781 C 442.40625 396.902344 443.777344 400.4375 445.074219 404.0625 C 445.488281 405.210938 445.90625 406.355469 446.324219 407.5 L 446.644531 408.382812 C 447.808594 411.5625 449.035156 414.71875 450.261719 417.871094 L 451.550781 421.179688 L 451.863281 421.988281 C 452.9375 424.75 453.996094 427.515625 455.046875 430.285156 L 455.546875 431.585938 L 455.992188 432.777344 L 456.386719 433.808594 C 456.660156 434.691406 456.660156 434.691406 456.660156 435.980469 L 445.910156 435.980469 L 442.898438 428.671875 L 426.988281 428.242188 L 425.699219 432.542969 L 424.410156 435.980469 L 413.660156 435.980469 C 413.953125 434.222656 414.171875 433.003906 414.792969 431.417969 L 415.21875 430.316406 L 415.675781 429.15625 L 416.621094 426.714844 L 417.089844 425.503906 C 417.675781 423.984375 418.253906 422.460938 418.820312 420.9375 C 421.003906 415.09375 423.230469 409.269531 425.507812 403.460938 C 426.484375 400.957031 427.390625 398.429688 428.261719 395.886719 C 428.710938 394.714844 428.710938 394.714844 429.570312 393.425781 " fill-opacity="1" fill-rule="nonzero"/><path fill="#69e9bd" d="M 328.847656 288.160156 C 330.617188 288.097656 332.386719 288.117188 334.160156 288.144531 C 334.960938 288.144531 335.757812 288.144531 336.558594 288.140625 C 338.726562 288.136719 340.890625 288.15625 343.058594 288.179688 C 345.324219 288.199219 347.59375 288.199219 349.859375 288.203125 C 353.664062 288.210938 357.46875 288.230469 361.273438 288.257812 C 366.644531 288.296875 372.015625 288.316406 377.386719 288.332031 C 384.574219 288.351562 391.761719 288.378906 398.949219 288.429688 C 399.730469 288.433594 400.511719 288.441406 401.289062 288.445312 C 402.351562 288.449219 403.410156 288.457031 404.472656 288.464844 L 405.414062 288.46875 C 407.542969 288.492188 407.542969 288.492188 408.5 288.972656 L 408.5 289.832031 L 409.789062 290.261719 C 410.300781 290.933594 410.300781 290.933594 410.648438 291.980469 C 410.769531 293.246094 410.847656 294.191406 410.648438 295.417969 C 409.921875 296.65625 409.921875 296.65625 408.929688 297.566406 C 407.148438 298.484375 405.496094 298.550781 403.535156 298.535156 L 402.554688 298.542969 C 401.476562 298.542969 400.394531 298.542969 399.3125 298.539062 C 398.539062 298.539062 397.761719 298.542969 396.988281 298.542969 C 394.882812 298.546875 392.777344 298.546875 390.671875 298.542969 C 388.464844 298.542969 386.261719 298.542969 384.058594 298.542969 C 380.359375 298.546875 376.65625 298.542969 372.957031 298.539062 C 368.679688 298.535156 364.398438 298.535156 360.121094 298.542969 C 356.449219 298.542969 352.773438 298.546875 349.101562 298.542969 C 346.90625 298.542969 344.714844 298.542969 342.519531 298.546875 C 340.457031 298.546875 338.394531 298.546875 336.332031 298.539062 C 335.574219 298.539062 334.816406 298.539062 334.0625 298.542969 C 333.027344 298.542969 331.992188 298.542969 330.960938 298.535156 L 330.054688 298.542969 C 328.238281 298.527344 326.757812 298.269531 325.082031 297.566406 C 324.058594 296.65625 324.058594 296.65625 323.359375 295.417969 C 323.101562 293.976562 323.015625 293.335938 323.359375 291.980469 C 323.855469 290.886719 324.417969 290.152344 325.234375 289.269531 C 326.453125 288.488281 327.410156 288.273438 328.847656 288.160156 " fill-opacity="1" fill-rule="nonzero"/><path fill="#a1efd5" d="M 313.585938 456.058594 C 315.453125 456.941406 316.875 458.039062 318.203125 459.621094 C 319.285156 461.339844 320.253906 463.238281 320.433594 465.285156 C 320.726562 474.410156 320.726562 474.410156 318.921875 477.925781 C 317.421875 480.089844 315.734375 481.632812 313.425781 482.898438 C 309.777344 484.300781 305.273438 484.007812 301.429688 483.695312 C 299.574219 483.347656 297.953125 482.816406 296.273438 481.976562 L 296.273438 481.113281 L 295.496094 480.796875 C 294.378906 480.15625 293.914062 479.527344 293.207031 478.453125 L 292.558594 477.496094 C 290.820312 474.210938 290.902344 470.835938 290.976562 467.226562 C 291.097656 464.753906 291.605469 462.644531 292.832031 460.480469 C 294.195312 458.449219 295.792969 456.851562 297.992188 455.753906 C 303.335938 454.097656 308.324219 454.128906 313.585938 456.058594 " fill-opacity="1" fill-rule="nonzero"/><path fill="#fefefe" d="M 224.894531 393.425781 L 261.871094 393.425781 L 261.871094 402.453125 C 259.964844 402.464844 258.054688 402.472656 256.148438 402.480469 L 254.503906 402.488281 L 252.929688 402.492188 L 251.472656 402.5 C 250.261719 402.453125 250.261719 402.453125 248.972656 402.023438 L 248.976562 403.292969 C 248.984375 407.234375 248.992188 411.171875 248.996094 415.113281 C 248.996094 417.140625 249 419.167969 249.003906 421.191406 C 249.007812 423.148438 249.011719 425.101562 249.011719 427.054688 C 249.015625 427.800781 249.015625 428.546875 249.019531 429.296875 C 249.019531 430.339844 249.023438 431.382812 249.019531 432.421875 L 249.027344 433.371094 C 249.019531 434.097656 249.003906 434.824219 248.972656 435.550781 L 248.542969 435.980469 L 238.222656 435.980469 L 237.792969 402.023438 L 236.503906 402.453125 C 235.613281 402.484375 234.726562 402.5 233.835938 402.492188 L 232.261719 402.488281 L 230.617188 402.480469 L 228.957031 402.472656 C 227.601562 402.46875 226.246094 402.460938 224.894531 402.453125 C 224.808594 401.671875 224.726562 400.894531 224.652344 400.113281 L 224.515625 398.800781 C 224.460938 397.292969 224.460938 397.292969 224.894531 393.425781 M 320.351562 393.425781 L 330.671875 393.425781 C 331.3125 394.707031 331.15625 396.015625 331.148438 397.421875 L 331.148438 398.398438 C 331.148438 399.46875 331.144531 400.539062 331.144531 401.609375 L 331.140625 403.832031 C 331.140625 405.785156 331.136719 407.734375 331.128906 409.6875 C 331.125 412.027344 331.121094 414.367188 331.121094 416.710938 C 331.117188 420.265625 331.109375 423.824219 331.101562 427.382812 L 355.179688 427.382812 L 355.179688 435.980469 L 320.351562 435.980469 C 319.640625 434.5625 319.863281 432.984375 319.867188 431.425781 L 319.863281 430.269531 C 319.863281 429 319.863281 427.730469 319.863281 426.460938 L 319.863281 423.820312 C 319.863281 421.972656 319.863281 420.125 319.867188 418.277344 C 319.867188 415.910156 319.867188 413.542969 319.863281 411.175781 C 319.863281 409.355469 319.863281 407.535156 319.863281 405.71875 C 319.863281 404.84375 319.863281 403.972656 319.863281 403.097656 C 319.863281 401.878906 319.863281 400.65625 319.867188 399.433594 L 319.863281 398.339844 L 319.867188 397.328125 L 319.867188 396.453125 C 319.921875 395.574219 319.921875 395.574219 320.351562 393.425781 " fill-opacity="1" fill-rule="nonzero"/><path fill="#a0eed4" d="M 336.25 303.703125 C 337.863281 303.582031 339.457031 303.574219 341.074219 303.605469 C 341.695312 303.605469 342.3125 303.601562 342.929688 303.597656 C 344.605469 303.589844 346.28125 303.605469 347.953125 303.625 C 349.710938 303.640625 351.464844 303.640625 353.222656 303.640625 C 356.167969 303.644531 359.113281 303.660156 362.0625 303.6875 C 365.464844 303.714844 368.871094 303.726562 372.273438 303.730469 C 375.902344 303.734375 379.53125 303.746094 383.160156 303.765625 C 384.207031 303.769531 385.25 303.773438 386.292969 303.773438 C 387.933594 303.78125 389.578125 303.789062 391.21875 303.808594 C 391.820312 303.8125 392.421875 303.816406 393.023438 303.816406 C 393.84375 303.816406 394.667969 303.828125 395.492188 303.835938 L 396.882812 303.847656 C 398.40625 304.046875 399.441406 304.527344 400.761719 305.304688 C 401.566406 306.273438 401.566406 306.273438 402.050781 307.453125 C 402.226562 309.089844 402.191406 310.132812 401.539062 311.644531 C 400.636719 312.765625 399.898438 313.261719 398.609375 313.902344 C 397.359375 314.066406 397.359375 314.066406 395.953125 314.070312 L 394.332031 314.085938 L 392.566406 314.082031 C 391.941406 314.085938 391.316406 314.089844 390.695312 314.09375 C 389.003906 314.101562 387.316406 314.105469 385.625 314.105469 C 384.214844 314.105469 382.804688 314.105469 381.390625 314.109375 C 378.0625 314.117188 374.730469 314.121094 371.398438 314.117188 C 367.964844 314.113281 364.53125 314.125 361.097656 314.140625 C 358.148438 314.152344 355.199219 314.160156 352.246094 314.15625 C 350.484375 314.15625 348.726562 314.160156 346.964844 314.167969 C 345.308594 314.179688 343.652344 314.175781 341.996094 314.167969 C 341.386719 314.167969 340.78125 314.167969 340.175781 314.175781 C 335.605469 314.21875 335.605469 314.21875 334.039062 313.4375 C 333.121094 312.699219 332.488281 311.945312 331.960938 310.894531 C 331.777344 309.566406 331.703125 308.738281 331.960938 307.453125 C 332.929688 305.53125 334.121094 304.222656 336.25 303.703125 " fill-opacity="1" fill-rule="nonzero"/><path fill="#fefefe" d="M 366.789062 393.425781 L 377.109375 393.425781 C 377.746094 394.699219 377.597656 395.988281 377.589844 397.382812 L 377.589844 398.347656 C 377.589844 399.402344 377.585938 400.460938 377.582031 401.515625 L 377.582031 403.707031 C 377.578125 405.636719 377.574219 407.5625 377.570312 409.488281 C 377.566406 411.796875 377.5625 414.109375 377.558594 416.417969 C 377.554688 419.929688 377.546875 423.441406 377.539062 426.953125 L 401.621094 427.382812 L 401.621094 435.980469 L 366.789062 435.980469 C 366.238281 434.324219 366.300781 432.761719 366.304688 431.035156 L 366.300781 429.902344 C 366.300781 428.664062 366.300781 427.429688 366.304688 426.191406 C 366.304688 425.332031 366.304688 424.472656 366.300781 423.613281 C 366.300781 421.8125 366.300781 420.007812 366.304688 418.207031 C 366.304688 415.898438 366.304688 413.589844 366.304688 411.28125 C 366.300781 409.507812 366.300781 407.730469 366.304688 405.953125 C 366.304688 405.105469 366.300781 404.253906 366.300781 403.402344 C 366.300781 402.210938 366.300781 401.019531 366.304688 399.828125 L 366.300781 398.765625 L 366.304688 397.773438 L 366.304688 396.921875 C 366.375 395.746094 366.597656 394.585938 366.789062 393.425781 " fill-opacity="1" fill-rule="nonzero"/><path fill="#69e9bd" d="M 374.746094 336.242188 C 375.644531 336.230469 376.546875 336.222656 377.445312 336.214844 L 378.878906 336.203125 C 380.738281 336.28125 382.402344 336.542969 383.988281 337.542969 C 384.898438 338.457031 385.351562 339.320312 385.710938 340.554688 C 386.09375 342.964844 385.6875 345.296875 384.917969 347.59375 C 383.761719 350.203125 382.179688 352.5 379.933594 354.273438 C 377.324219 355.917969 374.574219 357.15625 371.480469 357.441406 C 369.996094 357.492188 368.519531 357.492188 367.03125 357.480469 L 365.515625 357.492188 C 361.742188 357.480469 358.527344 356.90625 355.152344 355.195312 C 352.738281 353.558594 351.058594 351.203125 349.589844 348.71875 C 348.625 346.335938 348.171875 344.011719 348.328125 341.441406 C 348.542969 340.160156 348.804688 339.574219 349.511719 338.429688 C 350.414062 337.578125 351.035156 337.152344 352.171875 336.683594 C 353.148438 336.566406 353.148438 336.566406 354.238281 336.546875 L 355.476562 336.523438 L 356.816406 336.507812 L 358.207031 336.480469 C 359.679688 336.457031 361.152344 336.4375 362.625 336.414062 L 365.546875 336.367188 C 368.609375 336.3125 371.679688 336.28125 374.746094 336.242188 " fill-opacity="1" fill-rule="nonzero"/><path fill="#a0eed4" d="M 333.679688 455.324219 L 342.28125 455.324219 C 344.214844 457.742188 344.214844 457.742188 344.945312 458.964844 L 345.441406 459.792969 L 345.957031 460.660156 L 346.496094 461.570312 C 346.875 462.203125 347.246094 462.832031 347.621094 463.464844 C 348.195312 464.433594 348.773438 465.402344 349.351562 466.367188 L 350.445312 468.210938 L 350.96875 469.089844 C 351.382812 469.792969 351.78125 470.511719 352.171875 471.226562 L 352.171875 472.089844 L 353.03125 472.089844 L 353.023438 470.59375 C 353.015625 468.773438 353.011719 466.953125 353.007812 465.132812 C 353.003906 464.34375 353 463.554688 353 462.765625 C 352.992188 461.632812 352.992188 460.5 352.988281 459.367188 L 352.980469 458.292969 C 352.980469 457.445312 353.003906 456.597656 353.03125 455.753906 L 353.460938 455.324219 C 354.613281 455.28125 355.75 455.265625 356.902344 455.269531 L 357.878906 455.265625 C 358.699219 455.265625 359.519531 455.292969 360.339844 455.324219 L 360.769531 455.753906 C 360.8125 456.609375 360.820312 457.46875 360.820312 458.328125 L 360.820312 459.996094 L 360.8125 461.8125 L 360.808594 463.660156 C 360.808594 465.285156 360.804688 466.910156 360.800781 468.535156 C 360.796875 470.191406 360.792969 471.847656 360.792969 473.507812 C 360.785156 476.757812 360.78125 480.011719 360.769531 483.265625 C 358.484375 483.441406 356.203125 483.542969 353.90625 483.496094 C 353.53125 483.492188 353.15625 483.484375 352.769531 483.476562 C 351.742188 483.265625 351.742188 483.265625 350.828125 482.542969 C 349.984375 481.554688 349.640625 480.601562 349.160156 479.394531 C 348.558594 478.394531 347.941406 477.398438 347.308594 476.414062 C 346.984375 475.882812 346.660156 475.351562 346.335938 474.820312 C 345.667969 473.71875 344.996094 472.621094 344.324219 471.523438 L 343.359375 469.941406 L 342.480469 468.5 C 341.851562 467.359375 341.851562 467.359375 341.851562 466.5 L 340.992188 466.5 L 340.992188 483.265625 L 333.679688 483.265625 Z M 333.679688 455.324219 " fill-opacity="1" fill-rule="nonzero"/><path fill="#a1efd5" d="M 392.589844 455.324219 C 394.386719 456.023438 396.179688 456.726562 397.527344 458.140625 C 398.230469 459.160156 398.648438 460.167969 399.039062 461.339844 C 399.09375 462.492188 399.058594 463.628906 399.039062 464.78125 C 397.398438 465.339844 395.910156 465.164062 394.203125 465.023438 L 392.554688 464.890625 L 391.300781 464.78125 L 390.871094 461.773438 L 390.011719 461.773438 L 390.011719 460.910156 C 389.195312 460.890625 388.378906 460.871094 387.566406 460.859375 L 386.1875 460.828125 C 384.8125 460.914062 383.914062 461.128906 382.699219 461.773438 L 381.839844 463.0625 C 381.90625 464.398438 381.90625 464.398438 382.269531 465.640625 C 383.328125 466.167969 384.058594 466.136719 385.242188 466.160156 C 385.667969 466.171875 386.09375 466.183594 386.53125 466.199219 C 387.421875 466.21875 388.316406 466.238281 389.207031 466.253906 C 391.933594 466.339844 394.394531 466.613281 396.890625 467.789062 C 398.101562 468.769531 398.84375 469.527344 399.515625 470.929688 C 400.207031 473.015625 400.121094 475.078125 399.898438 477.246094 C 399.523438 478.6875 399.019531 479.882812 398.179688 481.113281 C 396.835938 482.335938 395.617188 482.886719 393.882812 483.296875 C 391.523438 483.796875 389.214844 483.835938 386.8125 483.828125 L 385.542969 483.847656 C 382.671875 483.851562 380.238281 483.382812 377.539062 482.40625 L 377.539062 481.542969 L 376.742188 481.210938 C 375.820312 480.683594 375.820312 480.683594 375.277344 479.96875 L 374.851562 479.125 L 374.414062 478.304688 C 373.960938 476.777344 374.054688 475.398438 374.101562 473.808594 C 375.230469 473.785156 376.359375 473.765625 377.488281 473.753906 L 378.460938 473.730469 C 379.300781 473.722656 380.140625 473.761719 380.980469 473.808594 C 381.839844 474.667969 381.839844 474.667969 382.136719 475.742188 L 382.699219 476.816406 C 384.664062 477.757812 386.265625 477.699219 388.425781 477.542969 C 390.140625 477.398438 390.140625 477.398438 391.730469 476.816406 C 391.929688 476 391.929688 476 392 475.070312 L 392.160156 473.378906 L 391.300781 473.378906 L 391.300781 472.519531 L 390.234375 472.5 C 388.636719 472.464844 387.039062 472.425781 385.441406 472.382812 L 383.765625 472.355469 L 382.144531 472.308594 L 380.65625 472.273438 C 379.09375 472.066406 378.039062 471.589844 376.679688 470.796875 C 375.460938 469.683594 374.625 468.507812 374.101562 466.929688 C 373.890625 464.550781 373.683594 462.089844 374.488281 459.8125 C 375.269531 458.488281 376.183594 457.535156 377.296875 456.480469 C 382.042969 454.230469 387.582031 453.707031 392.589844 455.324219 " fill-opacity="1" fill-rule="nonzero"/><path fill="#69e9bd" d="M 344.449219 319.382812 L 345.476562 319.382812 L 346.660156 319.375 L 347.953125 319.378906 L 349.316406 319.375 C 350.808594 319.371094 352.300781 319.375 353.792969 319.375 L 356.902344 319.375 C 359.070312 319.371094 361.242188 319.375 363.414062 319.378906 C 366.199219 319.382812 368.984375 319.378906 371.769531 319.375 C 373.910156 319.371094 376.046875 319.371094 378.1875 319.375 C 379.210938 319.375 380.238281 319.375 381.265625 319.375 C 382.703125 319.371094 384.136719 319.375 385.570312 319.378906 L 386.863281 319.375 L 388.046875 319.382812 L 389.078125 319.382812 C 390.140625 319.503906 390.816406 319.800781 391.730469 320.351562 C 392.699219 321.261719 392.699219 321.261719 393.449219 322.5 C 393.667969 323.6875 393.652344 324.75 393.449219 325.9375 C 392.886719 327.175781 392.886719 327.175781 392.160156 328.085938 C 390.824219 328.976562 390.277344 329.171875 388.71875 329.378906 C 387.324219 329.4375 385.933594 329.441406 384.535156 329.4375 L 383.265625 329.445312 C 381.882812 329.449219 380.5 329.449219 379.117188 329.449219 L 376.226562 329.453125 C 374.207031 329.457031 372.1875 329.457031 370.167969 329.457031 C 367.582031 329.457031 365 329.460938 362.414062 329.46875 C 360.425781 329.472656 358.433594 329.476562 356.445312 329.476562 C 355.492188 329.476562 354.539062 329.476562 353.585938 329.480469 C 352.253906 329.484375 350.917969 329.484375 349.585938 329.480469 C 349.191406 329.484375 348.800781 329.484375 348.398438 329.488281 C 346.191406 329.476562 344.355469 329.285156 342.28125 328.515625 C 341.234375 327.605469 341.234375 327.605469 340.5625 326.367188 C 340.390625 325.027344 340.308594 324.207031 340.5625 322.929688 C 341.480469 321.21875 342.367188 319.640625 344.449219 319.382812 " fill-opacity="1" fill-rule="nonzero"/><path fill="#a1efd5" d="M 412.800781 455.324219 L 436.019531 455.324219 L 436.019531 461.339844 L 420.539062 461.339844 L 420.109375 466.5 L 422.632812 466.390625 L 425.886719 466.257812 L 427.554688 466.183594 L 429.136719 466.121094 L 430.605469 466.0625 L 431.71875 466.070312 L 432.148438 466.5 L 432.148438 472.089844 L 420.539062 472.519531 L 420.109375 477.246094 L 436.019531 477.246094 L 436.019531 482.835938 L 435.589844 483.265625 C 434.875 483.300781 434.164062 483.316406 433.449219 483.3125 L 432.046875 483.3125 L 430.5625 483.304688 L 429.207031 483.304688 C 427.527344 483.300781 425.847656 483.296875 424.167969 483.289062 L 412.800781 483.265625 Z M 412.800781 455.324219 " fill-opacity="1" fill-rule="nonzero"/><path fill="#fefefe" d="M 517.289062 393.425781 C 518.015625 393.382812 518.746094 393.371094 519.476562 393.367188 L 520.820312 393.367188 L 522.234375 393.371094 L 523.644531 393.367188 L 524.988281 393.367188 L 526.226562 393.371094 L 527.175781 393.425781 L 527.609375 393.855469 C 527.648438 395.164062 527.660156 396.460938 527.65625 397.769531 L 527.65625 399.015625 C 527.65625 400.382812 527.652344 401.746094 527.648438 403.113281 L 527.648438 405.941406 C 527.644531 408.433594 527.640625 410.921875 527.636719 413.414062 C 527.632812 415.949219 527.628906 418.488281 527.628906 421.027344 C 527.625 426.011719 527.617188 430.996094 527.609375 435.980469 C 525.894531 435.992188 524.1875 436 522.476562 436.007812 L 520.992188 436.019531 L 519.585938 436.023438 L 518.285156 436.03125 L 517.289062 435.980469 L 516.859375 435.550781 C 516.816406 434.257812 516.800781 432.972656 516.800781 431.679688 L 516.800781 430.449219 C 516.796875 429.101562 516.796875 427.75 516.800781 426.402344 L 516.800781 423.601562 C 516.796875 421.644531 516.800781 419.6875 516.800781 417.726562 C 516.804688 415.210938 516.804688 412.695312 516.800781 410.175781 C 516.800781 408.25 516.800781 406.320312 516.800781 404.394531 C 516.800781 403.464844 516.800781 402.539062 516.800781 401.609375 C 516.796875 400.3125 516.800781 399.019531 516.800781 397.722656 L 516.800781 396.550781 C 516.800781 395.652344 516.828125 394.753906 516.859375 393.855469 Z M 517.289062 393.425781 " fill-opacity="1" fill-rule="nonzero"/><path fill="#a1efd5" d="M 271.878906 456.0625 C 273.761719 456.945312 275.199219 457.980469 276.492188 459.621094 C 277.253906 461.007812 277.867188 462.375 278.210938 463.921875 L 277.78125 465.210938 C 276.742188 465.28125 275.707031 465.332031 274.664062 465.371094 L 273.777344 465.4375 C 272.910156 465.460938 272.910156 465.460938 271.332031 465.210938 C 270.378906 463.972656 270.378906 463.972656 269.613281 462.632812 C 267.957031 461.488281 266.1875 460.976562 264.210938 460.695312 C 262.320312 460.972656 260.886719 461.589844 259.292969 462.632812 C 258.273438 463.613281 257.988281 464.386719 257.492188 465.722656 C 256.925781 468.382812 256.890625 470.675781 257.679688 473.296875 C 258.121094 474.496094 258.492188 475.167969 259.320312 476.171875 C 260.121094 476.835938 260.121094 476.835938 261.011719 477.246094 C 261.976562 477.3125 262.945312 477.339844 263.914062 477.355469 L 265.492188 477.386719 C 267.210938 477.230469 268.183594 476.925781 269.613281 475.957031 C 270.429688 474.644531 270.429688 474.644531 270.902344 473.378906 C 271.960938 473.367188 273.015625 473.355469 274.074219 473.351562 L 274.984375 473.339844 C 277.253906 473.328125 277.253906 473.328125 278.210938 473.808594 C 278.105469 475.789062 277.882812 477.308594 276.894531 479.046875 C 275.875 480.539062 274.742188 481.464844 273.203125 482.402344 C 270.128906 483.71875 267.242188 483.816406 263.941406 483.773438 L 262.675781 483.773438 C 260.765625 483.761719 259.015625 483.683594 257.140625 483.265625 L 257.140625 482.40625 L 256.230469 482.296875 C 255.046875 481.988281 254.082031 481.632812 253.082031 480.925781 C 251.589844 479.429688 250.644531 477.460938 249.832031 475.527344 C 248.988281 471.90625 248.976562 467.589844 249.628906 463.9375 C 250.410156 461.453125 251.695312 459.496094 253.515625 457.632812 C 255.640625 455.957031 258.378906 455.175781 260.996094 454.628906 C 264.691406 454.167969 268.402344 454.777344 271.878906 456.0625 " fill-opacity="1" fill-rule="nonzero"/><path fill="#69e9bd" d="M 336.417969 303.707031 C 338.257812 303.59375 340.070312 303.59375 341.914062 303.632812 C 342.589844 303.636719 343.269531 303.640625 343.945312 303.640625 C 345.363281 303.644531 346.777344 303.660156 348.195312 303.6875 C 350.011719 303.71875 351.828125 303.726562 353.644531 303.730469 C 355.042969 303.734375 356.4375 303.746094 357.835938 303.757812 C 358.507812 303.765625 359.179688 303.769531 359.847656 303.773438 C 360.78125 303.78125 361.714844 303.796875 362.648438 303.816406 L 364.257812 303.835938 L 365.5 304.015625 L 366.359375 305.304688 C 366.433594 306.476562 366.460938 307.601562 366.441406 308.769531 L 366.441406 309.726562 C 366.421875 312.0625 366.421875 312.0625 365.929688 313.042969 C 364.613281 313.3125 364.613281 313.3125 363.351562 313.472656 L 363.351562 313.902344 C 359.695312 313.953125 356.039062 313.988281 352.382812 314.015625 C 350.6875 314.023438 348.988281 314.039062 347.289062 314.0625 C 345.652344 314.089844 344.011719 314.101562 342.371094 314.105469 C 341.75 314.109375 341.125 314.117188 340.5 314.128906 C 335.621094 314.21875 335.621094 314.21875 334.011719 313.441406 C 333.101562 312.703125 332.484375 311.941406 331.960938 310.894531 C 331.777344 309.566406 331.707031 308.738281 331.960938 307.453125 C 332.472656 306.367188 333.0625 305.621094 333.878906 304.742188 C 334.972656 304.015625 334.972656 304.015625 336.417969 303.707031 " fill-opacity="1" fill-rule="nonzero"/><path fill="#a1efd5" d="M 376.25 288.542969 C 380.328125 288.53125 384.40625 288.523438 388.484375 288.519531 C 390.378906 288.515625 392.269531 288.511719 394.164062 288.507812 C 395.988281 288.503906 397.816406 288.5 399.640625 288.5 C 400.339844 288.5 401.039062 288.496094 401.734375 288.496094 C 402.710938 288.492188 403.6875 288.492188 404.660156 288.492188 L 406.34375 288.488281 C 407.640625 288.542969 407.640625 288.542969 408.5 288.972656 L 408.5 289.832031 L 409.789062 290.261719 C 410.300781 290.933594 410.300781 290.933594 410.648438 291.980469 C 410.769531 293.246094 410.847656 294.191406 410.648438 295.417969 C 409.925781 296.65625 409.925781 296.65625 408.929688 297.566406 C 406.976562 298.613281 405.140625 298.542969 402.984375 298.523438 L 401.839844 298.523438 C 400.59375 298.523438 399.347656 298.519531 398.105469 298.511719 L 395.511719 298.507812 C 393.238281 298.503906 390.964844 298.496094 388.691406 298.488281 C 386.371094 298.476562 384.050781 298.472656 381.730469 298.46875 C 377.179688 298.460938 372.632812 298.445312 368.082031 298.425781 L 367.648438 297.566406 L 376.679688 297.566406 L 377.109375 294.128906 C 377.621094 292.757812 377.621094 292.757812 378.210938 291.550781 L 378.804688 290.3125 L 379.261719 289.402344 L 376.679688 289.402344 Z M 469.988281 455.324219 C 471.148438 455.292969 472.296875 455.285156 473.457031 455.296875 L 474.445312 455.300781 C 475.253906 455.308594 476.058594 455.316406 476.867188 455.324219 C 477.28125 456.5625 477.351562 457.328125 477.347656 458.613281 L 477.347656 459.839844 L 477.339844 461.160156 L 477.339844 462.511719 C 477.335938 463.941406 477.332031 465.367188 477.324219 466.796875 C 477.324219 467.761719 477.320312 468.730469 477.320312 469.699219 C 477.316406 472.070312 477.304688 474.441406 477.296875 476.816406 L 492.347656 477.246094 C 493.140625 478.835938 493.320312 479.320312 493.289062 480.980469 L 493.28125 482.007812 L 493.207031 482.835938 L 492.777344 483.265625 C 492.066406 483.304688 491.355469 483.324219 490.644531 483.320312 L 489.265625 483.324219 L 487.765625 483.320312 L 486.238281 483.324219 C 485.167969 483.324219 484.101562 483.320312 483.03125 483.320312 C 481.390625 483.316406 479.75 483.320312 478.105469 483.324219 C 477.070312 483.324219 476.035156 483.324219 475 483.320312 L 473.5 483.324219 L 472.121094 483.320312 L 470.902344 483.320312 L 469.988281 483.265625 L 469.558594 482.835938 C 469.515625 481.992188 469.503906 481.148438 469.503906 480.308594 L 469.5 478.667969 L 469.5 476.882812 C 469.5 476.277344 469.5 475.671875 469.5 475.066406 C 469.5 473.796875 469.5 472.527344 469.503906 471.253906 C 469.503906 469.625 469.503906 467.992188 469.5 466.359375 C 469.5 465.109375 469.5 463.859375 469.5 462.605469 C 469.5 462.003906 469.5 461.402344 469.5 460.800781 C 469.5 459.960938 469.5 459.121094 469.503906 458.28125 L 469.503906 456.832031 L 469.558594 455.753906 Z M 454.9375 187.527344 C 455.796875 188.816406 455.796875 188.816406 455.9375 190.382812 C 455.953125 191.03125 455.96875 191.679688 455.976562 192.328125 L 456.003906 193.363281 C 456.027344 194.453125 456.046875 195.542969 456.066406 196.632812 L 456.117188 198.851562 C 456.160156 200.664062 456.195312 202.476562 456.230469 204.289062 L 456.660156 203.429688 L 457.519531 203.429688 L 457.519531 202.570312 L 458.378906 202.140625 L 458.808594 200.851562 L 459.667969 200.851562 L 459.667969 199.5625 L 460.527344 199.5625 L 460.527344 198.703125 L 462.25 198.703125 L 462.25 201.28125 L 463.109375 199.5625 L 463.539062 203 L 463.96875 201.710938 L 465.257812 201.710938 C 465.007812 210.589844 463.855469 219.515625 460.957031 227.933594 C 459.414062 227.046875 458.039062 226.074219 456.660156 224.949219 L 455.582031 224.078125 L 454.507812 223.203125 C 453.792969 222.628906 453.074219 222.054688 452.359375 221.484375 L 452.617188 220.515625 C 455.425781 209.652344 455.09375 198.65625 454.9375 187.527344 M 360.769531 319.492188 C 364.554688 319.46875 368.335938 319.457031 372.117188 319.445312 C 373.875 319.441406 375.632812 319.433594 377.386719 319.425781 C 379.082031 319.417969 380.777344 319.410156 382.472656 319.410156 C 383.121094 319.40625 383.765625 319.40625 384.414062 319.398438 C 385.320312 319.394531 386.226562 319.390625 387.128906 319.394531 L 388.691406 319.386719 C 389.976562 319.488281 390.664062 319.65625 391.730469 320.351562 C 392.699219 321.261719 392.699219 321.261719 393.449219 322.5 C 393.667969 323.6875 393.652344 324.75 393.449219 325.9375 C 392.886719 327.175781 392.886719 327.175781 392.160156 328.085938 C 390.824219 328.976562 390.273438 329.171875 388.71875 329.378906 C 387.359375 329.441406 386 329.449219 384.636719 329.449219 L 383.445312 329.453125 C 382.617188 329.457031 381.789062 329.457031 380.960938 329.457031 C 379.695312 329.457031 378.429688 329.464844 377.164062 329.472656 C 376.359375 329.476562 375.550781 329.476562 374.746094 329.476562 L 373.601562 329.484375 C 371.710938 329.480469 370.230469 329.40625 368.511719 328.515625 L 368.941406 327.65625 C 369.027344 325.175781 368.816406 322.8125 368.511719 320.351562 L 361.199219 320.351562 Z M 449.347656 455.324219 C 450.558594 455.3125 451.769531 455.304688 452.976562 455.296875 L 454.023438 455.285156 C 454.902344 455.28125 455.78125 455.300781 456.660156 455.324219 L 457.089844 455.753906 C 457.132812 456.59375 457.144531 457.4375 457.144531 458.28125 L 457.148438 459.921875 L 457.144531 461.703125 C 457.144531 462.308594 457.144531 462.914062 457.148438 463.519531 C 457.148438 464.792969 457.148438 466.0625 457.144531 467.332031 C 457.144531 468.964844 457.144531 470.597656 457.144531 472.230469 C 457.148438 473.480469 457.148438 474.730469 457.144531 475.980469 C 457.144531 476.582031 457.148438 477.183594 457.148438 477.785156 C 457.148438 478.625 457.148438 479.464844 457.144531 480.304688 L 457.144531 481.757812 L 457.089844 482.835938 L 456.660156 483.265625 C 455.507812 483.308594 454.371094 483.324219 453.21875 483.316406 L 452.242188 483.324219 C 451.421875 483.316406 450.597656 483.296875 449.777344 483.265625 L 449.347656 482.835938 C 449.3125 481.976562 449.296875 481.117188 449.300781 480.261719 L 449.300781 478.589844 L 449.308594 476.773438 L 449.308594 474.925781 C 449.3125 473.300781 449.3125 471.675781 449.320312 470.050781 C 449.324219 468.394531 449.324219 466.738281 449.328125 465.082031 C 449.332031 461.828125 449.339844 458.578125 449.347656 455.324219 " fill-opacity="1" fill-rule="nonzero"/><path fill="#031611" d="M 308.777344 461.191406 C 309.742188 461.582031 310.496094 461.988281 311.320312 462.632812 C 312.257812 463.84375 312.699219 465.011719 313.042969 466.5 C 313.3125 469.0625 313.332031 471.582031 312.53125 474.050781 C 311.71875 475.585938 311.050781 476.316406 309.601562 477.246094 C 307.949219 478.074219 306.042969 477.867188 304.226562 477.847656 C 302.722656 477.675781 302.722656 477.675781 301.699219 477.222656 C 300.398438 476.1875 299.5625 475.019531 298.878906 473.511719 C 298.214844 471.335938 298.132812 469.175781 298.421875 466.929688 C 298.980469 464.953125 299.726562 463.488281 301.164062 462.011719 C 303.847656 460.414062 305.789062 460.261719 308.777344 461.191406 M 479.019531 402.023438 L 484.445312 401.941406 L 486.144531 401.90625 C 488.207031 401.890625 489.847656 401.890625 491.796875 402.617188 C 492.777344 403.3125 492.777344 403.3125 493.585938 404.171875 C 494.332031 406.167969 494.304688 408.085938 494.066406 410.1875 C 493.21875 412.324219 493.21875 412.324219 492.347656 413.199219 C 491.363281 413.265625 490.378906 413.304688 489.390625 413.335938 L 488.496094 413.359375 C 487.550781 413.390625 486.601562 413.414062 485.65625 413.441406 L 483.734375 413.496094 C 482.164062 413.542969 480.589844 413.585938 479.019531 413.628906 Z M 434.730469 408.039062 C 436.042969 409.085938 436.667969 410.125 437.277344 411.652344 C 437.542969 412.382812 437.804688 413.113281 438.0625 413.84375 L 438.472656 414.957031 C 439.082031 416.648438 439.460938 417.816406 439.460938 419.644531 L 430.859375 419.644531 C 431.34375 416.257812 431.34375 416.257812 431.867188 414.898438 L 432.203125 414.011719 L 432.550781 413.117188 L 432.898438 412.207031 C 433.445312 410.78125 434.007812 409.386719 434.730469 408.039062 " fill-opacity="1" fill-rule="nonzero"/><path fill="#a1efd5" d="M 463.109375 181.9375 L 463.96875 181.9375 L 464.398438 186.667969 L 463.539062 186.667969 C 463.019531 185.632812 463.066406 184.96875 463.082031 183.816406 L 463.09375 182.753906 Z M 463.109375 181.9375 " fill-opacity="1" fill-rule="nonzero"/></svg>